<svg width="18" height="18" viewBox="0 0 18 18" fill="none" xmlns="http://www.w3.org/2000/svg">
<path d="M11.25 9L11.5273 9.41603C11.6664 9.32329 11.75 9.16718 11.75 9C11.75 8.83282 11.6664 8.67671 11.5273 8.58397L11.25 9ZM7.875 6.75L8.15235 6.33397C7.99892 6.23169 7.80165 6.22215 7.63907 6.30916C7.47649 6.39617 7.375 6.5656 7.375 6.75H7.875ZM7.875 11.25H7.375C7.375 11.4344 7.47649 11.6038 7.63907 11.6908C7.80165 11.7778 7.99892 11.7683 8.15235 11.666L7.875 11.25ZM15.25 9C15.25 12.4518 12.4518 15.25 9 15.25V16.25C13.0041 16.25 16.25 13.0041 16.25 9H15.25ZM9 15.25C5.54822 15.25 2.75 12.4518 2.75 9H1.75C1.75 13.0041 4.99594 16.25 9 16.25V15.25ZM2.75 9C2.75 5.54822 5.54822 2.75 9 2.75V1.75C4.99594 1.75 1.75 4.99594 1.75 9H2.75ZM9 2.75C12.4518 2.75 15.25 5.54822 15.25 9H16.25C16.25 4.99594 13.0041 1.75 9 1.75V2.75ZM11.5273 8.58397L8.15235 6.33397L7.59765 7.16603L10.9726 9.41603L11.5273 8.58397ZM7.375 6.75V11.25H8.375V6.75H7.375ZM8.15235 11.666L11.5273 9.41603L10.9726 8.58397L7.59765 10.834L8.15235 11.666Z" fill="#797979"/>
</svg>
