<svg width="24" height="24" viewBox="0 0 24 24" fill="none" xmlns="http://www.w3.org/2000/svg">
<path d="M8.99969 17.9991V18.7491C8.99969 19.5448 9.31576 20.3079 9.87837 20.8705C10.441 21.4331 11.204 21.7491 11.9997 21.7491C12.7953 21.7491 13.5584 21.4331 14.121 20.8705C14.6836 20.3079 14.9997 19.5448 14.9997 18.7491V17.9991M17.1965 2.24805C18.7226 3.21148 19.9528 4.57787 20.7513 6.19639M3.24805 6.19639C4.04657 4.57787 5.27679 3.21148 6.80291 2.24805M5.26873 10.4991C5.26626 9.61359 5.43854 8.73625 5.77572 7.9174C6.11289 7.09854 6.60833 6.35426 7.23363 5.7272C7.85894 5.10015 8.60183 4.60264 9.41975 4.26318C10.2377 3.92372 11.1145 3.74898 12.0001 3.74898C12.8856 3.74898 13.7625 3.92372 14.5804 4.26318C15.3983 4.60264 16.1412 5.10015 16.7665 5.7272C17.3918 6.35426 17.8872 7.09854 18.2244 7.9174C18.5616 8.73625 18.7339 9.61359 18.7314 10.4991C18.7314 13.8569 19.4339 15.8053 20.0526 16.8702C20.1193 16.984 20.1547 17.1134 20.1554 17.2452C20.1562 17.3771 20.1221 17.5068 20.0566 17.6213C19.9912 17.7358 19.8967 17.831 19.7828 17.8974C19.6688 17.9637 19.5393 17.9988 19.4075 17.9991H4.59191C4.46002 17.9988 4.33056 17.9637 4.21658 17.8973C4.10259 17.831 4.00813 17.7358 3.9427 17.6212C3.87728 17.5067 3.84321 17.377 3.84394 17.2451C3.84467 17.1132 3.88017 16.9838 3.94685 16.8701C4.56591 15.8051 5.26873 13.8567 5.26873 10.4991Z" stroke="#EABE0D" stroke-width="2" stroke-linecap="round" stroke-linejoin="round"/>
</svg>
