<svg width="32" height="32" viewBox="0 0 32 32" fill="none" xmlns="http://www.w3.org/2000/svg">
<path d="M16.0001 29.3327C14.1779 29.3327 12.4556 28.9825 10.8334 28.282C9.21119 27.5816 7.7943 26.626 6.58275 25.4153C5.37208 24.2047 4.41653 22.7882 3.71608 21.166C3.01564 19.5438 2.66586 17.8216 2.66675 15.9993C2.66675 14.1549 3.01697 12.4269 3.71742 10.8153C4.41786 9.20379 5.37342 7.79313 6.58408 6.58335C7.79475 5.37179 9.21075 4.41624 10.8321 3.71668C12.4534 3.01713 14.1761 2.6669 16.0001 2.66602C17.8445 2.66602 19.5725 3.01624 21.1841 3.71668C22.7956 4.41713 24.2063 5.37268 25.4161 6.58335C26.6276 7.79402 27.5832 9.20513 28.2828 10.8167C28.9823 12.4282 29.3325 14.1558 29.3334 15.9993C29.3334 17.8216 28.9832 19.5438 28.2828 21.166C27.5823 22.7882 26.6268 24.2051 25.4161 25.4167C24.2054 26.6273 22.7943 27.5829 21.1828 28.2833C19.5712 28.9838 17.8436 29.3336 16.0001 29.3327ZM16.0001 26.5993C16.5779 25.7994 17.0779 24.966 17.5001 24.0993C17.9223 23.2327 18.2667 22.3105 18.5334 21.3327H13.4668C13.7334 22.3105 14.0779 23.2327 14.5001 24.0993C14.9223 24.966 15.4223 25.7994 16.0001 26.5993ZM12.5334 26.066C12.1334 25.3327 11.7832 24.5714 11.4828 23.782C11.1823 22.9927 10.9325 22.1762 10.7334 21.3327H6.80008C7.44453 22.4438 8.25031 23.4105 9.21742 24.2327C10.1845 25.0549 11.2899 25.666 12.5334 26.066ZM19.4668 26.066C20.7112 25.666 21.817 25.0549 22.7841 24.2327C23.7512 23.4105 24.5565 22.4438 25.2001 21.3327H21.2668C21.0667 22.1771 20.817 22.994 20.5174 23.7833C20.2179 24.5727 19.8676 25.3336 19.4668 26.066ZM5.66675 18.666H10.2001C10.1334 18.2216 10.0832 17.7825 10.0494 17.3487C10.0156 16.9149 9.99919 16.4651 10.0001 15.9993C10.0001 15.5327 10.017 15.0829 10.0508 14.65C10.0845 14.2171 10.1343 13.778 10.2001 13.3327H5.66675C5.55564 13.7771 5.47208 14.2162 5.41608 14.65C5.36008 15.0838 5.33253 15.5336 5.33342 15.9993C5.33342 16.466 5.36142 16.9158 5.41742 17.3487C5.47342 17.7816 5.55653 18.2207 5.66675 18.666ZM12.8667 18.666H19.1334C19.2001 18.2216 19.2503 17.7825 19.2841 17.3487C19.3179 16.9149 19.3343 16.4651 19.3334 15.9993C19.3334 15.5327 19.3165 15.0829 19.2827 14.65C19.249 14.2171 19.1992 13.778 19.1334 13.3327H12.8667C12.8001 13.7771 12.7499 14.2162 12.7161 14.65C12.6823 15.0838 12.6659 15.5336 12.6667 15.9993C12.6667 16.466 12.6836 16.9158 12.7174 17.3487C12.7512 17.7816 12.801 18.2207 12.8667 18.666ZM21.8001 18.666H26.3334C26.4445 18.2216 26.5281 17.7825 26.5841 17.3487C26.6401 16.9149 26.6676 16.4651 26.6668 15.9993C26.6668 15.5327 26.6388 15.0829 26.5828 14.65C26.5268 14.2171 26.4436 13.778 26.3334 13.3327H21.8001C21.8668 13.7771 21.917 14.2162 21.9507 14.65C21.9845 15.0838 22.001 15.5336 22.0001 15.9993C22.0001 16.466 21.9832 16.9158 21.9494 17.3487C21.9156 17.7816 21.8659 18.2207 21.8001 18.666ZM21.2668 10.666H25.2001C24.5556 9.5549 23.7503 8.58824 22.7841 7.76602C21.8179 6.94379 20.7121 6.33268 19.4668 5.93268C19.8668 6.66602 20.217 7.42735 20.5174 8.21668C20.8179 9.00602 21.0676 9.82246 21.2668 10.666ZM13.4668 10.666H18.5334C18.2667 9.68824 17.9223 8.76602 17.5001 7.89935C17.0779 7.03268 16.5779 6.19935 16.0001 5.39935C15.4223 6.19935 14.9223 7.03268 14.5001 7.89935C14.0779 8.76602 13.7334 9.68824 13.4668 10.666ZM6.80008 10.666H10.7334C10.9334 9.82157 11.1836 9.00468 11.4841 8.21535C11.7845 7.42602 12.1343 6.66513 12.5334 5.93268C11.289 6.33268 10.1832 6.94379 9.21608 7.76602C8.24897 8.58824 7.44364 9.5549 6.80008 10.666Z" fill="#EABE0D"/>
</svg>
