<svg width="24" height="24" viewBox="0 0 24 24" fill="none" xmlns="http://www.w3.org/2000/svg">
<path d="M14.3669 4.70886C13.9682 4.82119 13.7361 5.23546 13.8484 5.63415C13.9607 6.03284 14.375 6.26498 14.7737 6.15265L14.3669 4.70886ZM15.8931 14.9992L15.8925 14.2492C15.4784 14.2495 15.1429 14.5854 15.1431 14.9995C15.1432 15.4136 15.479 15.7492 15.8931 15.7492L15.8931 14.9992ZM22.0293 18.9355C22.2673 19.2745 22.735 19.3564 23.074 19.1184C23.413 18.8804 23.4949 18.4127 23.2569 18.0736L22.0293 18.9355ZM0.886449 18.0738C0.648226 18.4126 0.729804 18.8804 1.06866 19.1187C1.40751 19.3569 1.87533 19.2753 2.11355 18.9364L0.886449 18.0738ZM14.3869 18.936C14.6252 19.2748 15.093 19.3564 15.4318 19.1181C15.7706 18.8799 15.8522 18.412 15.6139 18.0732L14.3869 18.936ZM12.3754 10.1242C12.3754 12.4023 10.5286 14.2492 8.25039 14.2492V15.7492C11.357 15.7492 13.8754 13.2308 13.8754 10.1242H12.3754ZM8.25039 14.2492C5.97222 14.2492 4.12539 12.4023 4.12539 10.1242H2.62539C2.62539 13.2308 5.14379 15.7492 8.25039 15.7492V14.2492ZM4.12539 10.1242C4.12539 7.84599 5.97222 5.99916 8.25039 5.99916V4.49916C5.14379 4.49916 2.62539 7.01756 2.62539 10.1242H4.12539ZM8.25039 5.99916C10.5286 5.99916 12.3754 7.84599 12.3754 10.1242H13.8754C13.8754 7.01756 11.357 4.49916 8.25039 4.49916V5.99916ZM14.7737 6.15265C15.3411 5.99279 15.9361 5.95638 16.5187 6.04585L16.7464 4.56324C15.952 4.44123 15.1406 4.49088 14.3669 4.70886L14.7737 6.15265ZM16.5187 6.04585C17.1014 6.13533 17.6581 6.34862 18.1513 6.67137L18.9726 5.41618C18.3 4.97609 17.5409 4.68524 16.7464 4.56324L16.5187 6.04585ZM18.1513 6.67137C18.6446 6.99411 19.0629 7.41881 19.3782 7.91685L20.6456 7.11451C20.2157 6.43538 19.6452 5.85626 18.9726 5.41618L18.1513 6.67137ZM19.3782 7.91685C19.6936 8.4149 19.8985 8.97474 19.9792 9.55864L21.4651 9.35323C21.355 8.55702 21.0756 7.79364 20.6456 7.11451L19.3782 7.91685ZM19.9792 9.55864C20.0599 10.1426 20.0146 10.737 19.8462 11.3019L21.2837 11.7303C21.5133 10.96 21.5751 10.1494 21.4651 9.35323L19.9792 9.55864ZM19.8462 11.3019C19.6779 11.8668 19.3904 12.3891 19.0032 12.8335L20.1342 13.8188C20.6622 13.2128 21.0542 12.5006 21.2837 11.7303L19.8462 11.3019ZM19.0032 12.8335C18.616 13.278 18.1381 13.6343 17.6015 13.8785L18.2229 15.2438C18.9545 14.9108 19.6062 14.4249 20.1342 13.8188L19.0032 12.8335ZM17.6015 13.8785C17.065 14.1227 16.4824 14.2491 15.893 14.2492L15.8931 15.7492C16.6969 15.7491 17.4914 15.5767 18.2229 15.2438L17.6015 13.8785ZM15.8936 15.7492C17.0971 15.7483 18.283 16.0374 19.3511 16.5921L20.0424 15.2609C18.7605 14.5951 17.337 14.2481 15.8925 14.2492L15.8936 15.7492ZM19.3511 16.5921C20.4191 17.1467 21.3378 17.9506 22.0293 18.9355L23.2569 18.0736C22.4269 16.8914 21.3243 15.9266 20.0424 15.2609L19.3511 16.5921ZM2.11355 18.9364C2.80572 17.9519 3.72463 17.1483 4.79268 16.5936L4.10129 15.2624C2.81967 15.9281 1.71703 16.8923 0.886449 18.0738L2.11355 18.9364ZM4.79268 16.5936C5.86071 16.0388 7.04687 15.7492 8.25042 15.7492L8.25036 14.2492C6.80622 14.2492 5.38293 14.5967 4.10129 15.2624L4.79268 16.5936ZM8.25042 15.7492C9.45392 15.7491 10.6395 16.0386 11.7076 16.5933L12.3989 15.2621C11.1172 14.5965 9.69457 14.2491 8.25036 14.2492L8.25042 15.7492ZM11.7076 16.5933C12.7757 17.148 13.6947 17.9515 14.3869 18.936L15.6139 18.0732C14.7833 16.8918 13.6806 15.9277 12.3989 15.2621L11.7076 16.5933Z" fill="#797979"/>
</svg>
