<svg width="24" height="24" viewBox="0 0 24 24" fill="none" xmlns="http://www.w3.org/2000/svg">
<path d="M4.25895 16.5939C3.14076 14.7089 2.74916 12.4805 3.15768 10.3272C3.56621 8.1739 4.74675 6.2438 6.47764 4.89933C8.20853 3.55486 10.3707 2.8885 12.5581 3.02539C14.7455 3.16227 16.8078 4.09298 18.3575 5.64274C19.9073 7.19251 20.838 9.25472 20.9749 11.4421C21.1118 13.6296 20.4455 15.7917 19.101 17.5226C17.7565 19.2535 15.8264 20.4341 13.6732 20.8426C11.5199 21.2511 9.29149 20.8596 7.40649 19.7414L7.40651 19.7413L4.29808 20.6294C4.16947 20.6662 4.03338 20.6678 3.90391 20.6343C3.77443 20.6007 3.65628 20.5332 3.5617 20.4386C3.46713 20.344 3.39956 20.2259 3.36601 20.0964C3.33246 19.9669 3.33415 19.8308 3.37089 19.7022L4.25901 16.5938L4.25895 16.5939Z" stroke="#797979" stroke-width="1.5" stroke-linecap="round" stroke-linejoin="round"/>
<path d="M16.5 13.125C17.1213 13.125 17.625 12.6213 17.625 12C17.625 11.3787 17.1213 10.875 16.5 10.875C15.8787 10.875 15.375 11.3787 15.375 12C15.375 12.6213 15.8787 13.125 16.5 13.125Z" fill="#5E718D"/>
<path d="M12 13.125C12.6213 13.125 13.125 12.6213 13.125 12C13.125 11.3787 12.6213 10.875 12 10.875C11.3787 10.875 10.875 11.3787 10.875 12C10.875 12.6213 11.3787 13.125 12 13.125Z" fill="#5E718D"/>
<path d="M7.5 13.125C8.12132 13.125 8.625 12.6213 8.625 12C8.625 11.3787 8.12132 10.875 7.5 10.875C6.87868 10.875 6.375 11.3787 6.375 12C6.375 12.6213 6.87868 13.125 7.5 13.125Z" fill="#5E718D"/>
</svg>
