<svg width="32" height="32" viewBox="0 0 32 32" fill="none" xmlns="http://www.w3.org/2000/svg">
<path d="M16.0003 29.3327C14.1781 29.3327 12.4559 28.9825 10.8337 28.282C9.21144 27.5816 7.79455 26.626 6.58299 25.4153C5.37233 24.2047 4.41677 22.7882 3.71633 21.166C3.01588 19.5438 2.6661 17.8216 2.66699 15.9993C2.66699 14.1549 3.01722 12.4269 3.71766 10.8153C4.41811 9.20379 5.37366 7.79313 6.58433 6.58335C7.79499 5.37179 9.21099 4.41624 10.8323 3.71668C12.4537 3.01713 14.1763 2.6669 16.0003 2.66602C17.8448 2.66602 19.5728 3.01624 21.1843 3.71668C22.7959 4.41713 24.2066 5.37268 25.4163 6.58335C26.6279 7.79402 27.5834 9.20513 28.283 10.8167C28.9826 12.4282 29.3328 14.1558 29.3337 15.9993C29.3337 17.8216 28.9834 19.5438 28.283 21.166C27.5826 22.7882 26.627 24.2051 25.4163 25.4167C24.2057 26.6273 22.7945 27.5829 21.183 28.2833C19.5714 28.9838 17.8439 29.3336 16.0003 29.3327ZM16.0003 26.5993C16.5781 25.7994 17.0781 24.966 17.5003 24.0993C17.9225 23.2327 18.267 22.3105 18.5337 21.3327H13.467C13.7337 22.3105 14.0781 23.2327 14.5003 24.0993C14.9225 24.966 15.4225 25.7994 16.0003 26.5993ZM12.5337 26.066C12.1337 25.3327 11.7834 24.5714 11.483 23.782C11.1826 22.9927 10.9328 22.1762 10.7337 21.3327H6.80033C7.44477 22.4438 8.25055 23.4105 9.21766 24.2327C10.1848 25.0549 11.2901 25.666 12.5337 26.066ZM19.467 26.066C20.7114 25.666 21.8172 25.0549 22.7843 24.2327C23.7514 23.4105 24.5568 22.4438 25.2003 21.3327H21.267C21.067 22.1771 20.8172 22.994 20.5177 23.7833C20.2181 24.5727 19.8679 25.3336 19.467 26.066ZM5.66699 18.666H10.2003C10.1337 18.2216 10.0834 17.7825 10.0497 17.3487C10.0159 16.9149 9.99944 16.4651 10.0003 15.9993C10.0003 15.5327 10.0172 15.0829 10.051 14.65C10.0848 14.2171 10.1346 13.778 10.2003 13.3327H5.66699C5.55588 13.7771 5.47233 14.2162 5.41633 14.65C5.36033 15.0838 5.33277 15.5336 5.33366 15.9993C5.33366 16.466 5.36166 16.9158 5.41766 17.3487C5.47366 17.7816 5.55677 18.2207 5.66699 18.666ZM12.867 18.666H19.1337C19.2003 18.2216 19.2505 17.7825 19.2843 17.3487C19.3181 16.9149 19.3345 16.4651 19.3337 15.9993C19.3337 15.5327 19.3168 15.0829 19.283 14.65C19.2492 14.2171 19.1994 13.778 19.1337 13.3327H12.867C12.8003 13.7771 12.7501 14.2162 12.7163 14.65C12.6825 15.0838 12.6661 15.5336 12.667 15.9993C12.667 16.466 12.6839 16.9158 12.7177 17.3487C12.7514 17.7816 12.8012 18.2207 12.867 18.666ZM21.8003 18.666H26.3337C26.4448 18.2216 26.5283 17.7825 26.5843 17.3487C26.6403 16.9149 26.6679 16.4651 26.667 15.9993C26.667 15.5327 26.639 15.0829 26.583 14.65C26.527 14.2171 26.4439 13.778 26.3337 13.3327H21.8003C21.867 13.7771 21.9172 14.2162 21.951 14.65C21.9848 15.0838 22.0012 15.5336 22.0003 15.9993C22.0003 16.466 21.9834 16.9158 21.9497 17.3487C21.9159 17.7816 21.8661 18.2207 21.8003 18.666ZM21.267 10.666H25.2003C24.5559 9.5549 23.7505 8.58824 22.7843 7.76602C21.8181 6.94379 20.7123 6.33268 19.467 5.93268C19.867 6.66602 20.2172 7.42735 20.5177 8.21668C20.8181 9.00602 21.0679 9.82246 21.267 10.666ZM13.467 10.666H18.5337C18.267 9.68824 17.9225 8.76602 17.5003 7.89935C17.0781 7.03268 16.5781 6.19935 16.0003 5.39935C15.4225 6.19935 14.9225 7.03268 14.5003 7.89935C14.0781 8.76602 13.7337 9.68824 13.467 10.666ZM6.80033 10.666H10.7337C10.9337 9.82157 11.1839 9.00468 11.4843 8.21535C11.7848 7.42602 12.1345 6.66513 12.5337 5.93268C11.2892 6.33268 10.1834 6.94379 9.21633 7.76602C8.24922 8.58824 7.44388 9.5549 6.80033 10.666Z" fill="#EABE0D"/>
</svg>
