<svg width="32" height="33" viewBox="0 0 32 33" fill="none" xmlns="http://www.w3.org/2000/svg">
<path d="M6.80761 25.6924C5.65711 24.5419 6.42019 22.1265 5.8346 20.7111C5.22755 19.244 3 18.0631 3 16.5C3 14.9368 5.22756 13.756 5.8346 12.2888C6.4202 10.8735 5.65711 8.45811 6.80761 7.30761C7.95811 6.15711 10.3735 6.92019 11.7889 6.3346C13.256 5.72755 14.4369 3.5 16 3.5C17.5632 3.5 18.744 5.72756 20.2112 6.3346C21.6265 6.9202 24.0419 6.15711 25.1924 7.30761C26.3429 8.45811 25.5798 10.8735 26.1654 12.2889C26.7725 13.756 29 14.9369 29 16.5C29 18.0632 26.7724 19.244 26.1654 20.7112C25.5798 22.1265 26.3429 24.5419 25.1924 25.6924C24.0419 26.8429 21.6265 26.0798 20.2111 26.6654C18.744 27.2725 17.5631 29.5 16 29.5C14.4368 29.5 13.256 27.2724 11.7888 26.6654C10.3735 26.0798 7.95811 26.8429 6.80761 25.6924Z" fill="#2C97EA"/>
<path d="M21.5 13.5L14.1666 20.5L10.5 17" fill="#2C97EA"/>
<path d="M21.5 13.5L14.1666 20.5L10.5 17M6.80761 25.6924C5.65711 24.5419 6.42019 22.1265 5.8346 20.7111C5.22755 19.244 3 18.0631 3 16.5C3 14.9368 5.22756 13.756 5.8346 12.2888C6.4202 10.8735 5.65711 8.45811 6.80761 7.30761C7.95811 6.15711 10.3735 6.92019 11.7889 6.3346C13.256 5.72755 14.4369 3.5 16 3.5C17.5632 3.5 18.744 5.72756 20.2112 6.3346C21.6265 6.9202 24.0419 6.15711 25.1924 7.30761C26.3429 8.45811 25.5798 10.8735 26.1654 12.2889C26.7725 13.756 29 14.9369 29 16.5C29 18.0632 26.7724 19.244 26.1654 20.7112C25.5798 22.1265 26.3429 24.5419 25.1924 25.6924C24.0419 26.8429 21.6265 26.0798 20.2111 26.6654C18.744 27.2725 17.5631 29.5 16 29.5C14.4368 29.5 13.256 27.2724 11.7888 26.6654C10.3735 26.0798 7.95811 26.8429 6.80761 25.6924Z" stroke="white" stroke-width="1.5" stroke-linecap="round" stroke-linejoin="round"/>
</svg>
