<svg width="32" height="32" viewBox="0 0 32 32" fill="none" xmlns="http://www.w3.org/2000/svg">
<path d="M15.9998 29.3337C14.1776 29.3337 12.4554 28.9834 10.8332 28.283C9.21095 27.5825 7.79406 26.627 6.58251 25.4163C5.37184 24.2057 4.41628 22.7892 3.71584 21.167C3.01539 19.5448 2.66562 17.8225 2.66651 16.0003C2.66651 14.1559 3.01673 12.4279 3.71717 10.8163C4.41762 9.20477 5.37317 7.7941 6.58384 6.58433C7.79451 5.37277 9.21051 4.41721 10.8318 3.71766C12.4532 3.0181 14.1758 2.66788 15.9998 2.66699C17.8443 2.66699 19.5723 3.01721 21.1838 3.71766C22.7954 4.4181 24.2061 5.37366 25.4158 6.58433C26.6274 7.79499 27.583 9.2061 28.2825 10.8177C28.9821 12.4292 29.3323 14.1568 29.3332 16.0003C29.3332 17.8225 28.983 19.5448 28.2825 21.167C27.5821 22.7892 26.6265 24.2061 25.4158 25.4177C24.2052 26.6283 22.7941 27.5839 21.1825 28.2843C19.5709 28.9848 17.8434 29.3345 15.9998 29.3337ZM15.9998 26.6003C16.5776 25.8003 17.0776 24.967 17.4998 24.1003C17.9221 23.2337 18.2665 22.3114 18.5332 21.3337H13.4665C13.7332 22.3114 14.0776 23.2337 14.4998 24.1003C14.9221 24.967 15.4221 25.8003 15.9998 26.6003ZM12.5332 26.067C12.1332 25.3337 11.783 24.5723 11.4825 23.783C11.1821 22.9937 10.9323 22.1772 10.7332 21.3337H6.79984C7.44428 22.4448 8.25006 23.4114 9.21717 24.2337C10.1843 25.0559 11.2896 25.667 12.5332 26.067ZM19.4665 26.067C20.711 25.667 21.8167 25.0559 22.7838 24.2337C23.7509 23.4114 24.5563 22.4448 25.1998 21.3337H21.2665C21.0665 22.1781 20.8167 22.995 20.5172 23.7843C20.2176 24.5737 19.8674 25.3345 19.4665 26.067ZM5.66651 18.667H10.1998C10.1332 18.2225 10.083 17.7834 10.0492 17.3497C10.0154 16.9159 9.99895 16.4661 9.99984 16.0003C9.99984 15.5337 10.0167 15.0839 10.0505 14.651C10.0843 14.2181 10.1341 13.779 10.1998 13.3337H5.66651C5.55539 13.7781 5.47184 14.2172 5.41584 14.651C5.35984 15.0848 5.33228 15.5345 5.33317 16.0003C5.33317 16.467 5.36117 16.9168 5.41717 17.3497C5.47317 17.7825 5.55628 18.2217 5.66651 18.667ZM12.8665 18.667H19.1332C19.1998 18.2225 19.2501 17.7834 19.2838 17.3497C19.3176 16.9159 19.3341 16.4661 19.3332 16.0003C19.3332 15.5337 19.3163 15.0839 19.2825 14.651C19.2487 14.2181 19.1989 13.779 19.1332 13.3337H12.8665C12.7998 13.7781 12.7496 14.2172 12.7158 14.651C12.6821 15.0848 12.6656 15.5345 12.6665 16.0003C12.6665 16.467 12.6834 16.9168 12.7172 17.3497C12.751 17.7825 12.8007 18.2217 12.8665 18.667ZM21.7998 18.667H26.3332C26.4443 18.2225 26.5278 17.7834 26.5838 17.3497C26.6398 16.9159 26.6674 16.4661 26.6665 16.0003C26.6665 15.5337 26.6385 15.0839 26.5825 14.651C26.5265 14.2181 26.4434 13.779 26.3332 13.3337H21.7998C21.8665 13.7781 21.9167 14.2172 21.9505 14.651C21.9843 15.0848 22.0007 15.5345 21.9998 16.0003C21.9998 16.467 21.983 16.9168 21.9492 17.3497C21.9154 17.7825 21.8656 18.2217 21.7998 18.667ZM21.2665 10.667H25.1998C24.5554 9.55588 23.7501 8.58921 22.7838 7.76699C21.8176 6.94477 20.7118 6.33366 19.4665 5.93366C19.8665 6.66699 20.2167 7.42833 20.5172 8.21766C20.8176 9.00699 21.0674 9.82344 21.2665 10.667ZM13.4665 10.667H18.5332C18.2665 9.68921 17.9221 8.76699 17.4998 7.90033C17.0776 7.03366 16.5776 6.20033 15.9998 5.40033C15.4221 6.20033 14.9221 7.03366 14.4998 7.90033C14.0776 8.76699 13.7332 9.68921 13.4665 10.667ZM6.79984 10.667H10.7332C10.9332 9.82255 11.1834 9.00566 11.4838 8.21633C11.7843 7.42699 12.1341 6.6661 12.5332 5.93366C11.2887 6.33366 10.183 6.94477 9.21584 7.76699C8.24873 8.58921 7.44339 9.55588 6.79984 10.667Z" fill="#EABE0D"/>
</svg>
