<svg width="48" height="48" viewBox="0 0 48 48" fill="none" xmlns="http://www.w3.org/2000/svg">
<rect width="48" height="48" rx="6" fill="#EABE0D"/>
<path d="M31.5 25.5H16.5C16.0858 25.5 15.75 25.8358 15.75 26.25V30.75C15.75 31.1642 16.0858 31.5 16.5 31.5H31.5C31.9142 31.5 32.25 31.1642 32.25 30.75V26.25C32.25 25.8358 31.9142 25.5 31.5 25.5Z" stroke="white" stroke-width="1.5" stroke-linecap="round" stroke-linejoin="round"/>
<path d="M31.5 16.5H16.5C16.0858 16.5 15.75 16.8358 15.75 17.25V21.75C15.75 22.1642 16.0858 22.5 16.5 22.5H31.5C31.9142 22.5 32.25 22.1642 32.25 21.75V17.25C32.25 16.8358 31.9142 16.5 31.5 16.5Z" stroke="white" stroke-width="1.5" stroke-linecap="round" stroke-linejoin="round"/>
<path d="M28.875 29.625C29.4963 29.625 30 29.1213 30 28.5C30 27.8787 29.4963 27.375 28.875 27.375C28.2537 27.375 27.75 27.8787 27.75 28.5C27.75 29.1213 28.2537 29.625 28.875 29.625Z" fill="white"/>
<path d="M28.875 20.625C29.4963 20.625 30 20.1213 30 19.5C30 18.8787 29.4963 18.375 28.875 18.375C28.2537 18.375 27.75 18.8787 27.75 19.5C27.75 20.1213 28.2537 20.625 28.875 20.625Z" fill="white"/>
</svg>
