<svg width="48" height="48" viewBox="0 0 48 48" fill="none" xmlns="http://www.w3.org/2000/svg">
<rect width="48" height="48" rx="6" fill="#EABE0D"/>
<path d="M28.4996 26.9995V34.5L23.9989 32.25L19.4996 34.5V27.0002M31.499 21C31.499 25.1421 28.1412 28.5 23.999 28.5C19.8569 28.5 16.499 25.1421 16.499 21C16.499 16.8579 19.8569 13.5 23.999 13.5C28.1412 13.5 31.499 16.8579 31.499 21ZM28.499 21C28.499 23.4853 26.4843 25.5 23.999 25.5C21.5137 25.5 19.499 23.4853 19.499 21C19.499 18.5147 21.5137 16.5 23.999 16.5C26.4843 16.5 28.499 18.5147 28.499 21Z" stroke="white" stroke-width="1.5" stroke-linecap="round" stroke-linejoin="round"/>
</svg>
