<svg width="48" height="48" viewBox="0 0 48 48" fill="none" xmlns="http://www.w3.org/2000/svg">
<rect width="48" height="48" rx="6" fill="#EABE0D"/>
<path d="M32.2504 24.5752L34.5677 23.4165C34.6568 23.372 34.7361 23.3101 34.801 23.2346C34.866 23.1591 34.9152 23.0714 34.9459 22.9766C34.9765 22.8818 34.988 22.7819 34.9796 22.6827C34.9713 22.5834 34.9432 22.4868 34.8971 22.3986L32.5915 17.9832C32.5005 17.8089 32.3447 17.6773 32.1576 17.6168C31.9705 17.5563 31.7672 17.5716 31.5913 17.6595L29.2504 18.83M32.2504 24.5752L29.2504 18.83M32.2504 24.5752L30.7504 26.33M29.2504 18.83L25.4361 18.83C25.3376 18.83 25.2401 18.8494 25.1491 18.8871C25.0581 18.9248 24.9754 18.98 24.9058 19.0496L21.2369 22.7185C21.1609 22.7945 21.1022 22.8859 21.0646 22.9866C21.027 23.0872 21.0115 23.1948 21.0191 23.302C21.0267 23.4092 21.0573 23.5135 21.1087 23.6078C21.1602 23.7022 21.2313 23.7844 21.3172 23.8488L21.8254 24.23C22.3447 24.6194 22.9763 24.83 23.6254 24.83C24.2745 24.83 24.9061 24.6194 25.4254 24.23L26.6254 23.33L30.7504 26.33M30.7504 26.33L27.3007 29.7797C27.2091 29.8713 27.0954 29.9376 26.9706 29.9722C26.8457 30.0067 26.7141 30.0084 26.5885 29.977L21.155 28.6186C21.0531 28.5931 20.9577 28.5465 20.8749 28.4818L15.7504 24.4747M15.7504 24.4747L13.4331 23.316C13.3441 23.2715 13.2647 23.2097 13.1998 23.1341C13.1349 23.0586 13.0856 22.9709 13.055 22.8761C13.0243 22.7814 13.0128 22.6814 13.0212 22.5822C13.0296 22.483 13.0576 22.3864 13.1037 22.2981L15.4093 17.8827C15.5003 17.7084 15.6562 17.5768 15.8432 17.5163C16.0303 17.4558 16.2337 17.4711 16.4096 17.5591L18.7504 18.7295L15.7504 24.4747ZM22.5004 31.955L19.6749 31.2486C19.5602 31.2199 19.4539 31.1646 19.3647 31.087L17.2504 29.2492M18.8043 18.7295L23.6155 17.3268C23.7874 17.2767 23.9715 17.2898 24.1346 17.3636L27.3754 18.83" stroke="white" stroke-width="1.5" stroke-linecap="round" stroke-linejoin="round"/>
</svg>
