<svg width="48" height="48" viewBox="0 0 48 48" fill="none" xmlns="http://www.w3.org/2000/svg">
<rect width="48" height="48" rx="6" fill="#EABE0D"/>
<path d="M19.5 21.75H28.5M19.5 21.75C18.7044 21.75 17.9413 22.0661 17.3787 22.6287C16.8161 23.1913 16.5 23.9544 16.5 24.75V32.25C16.5 32.4489 16.579 32.6397 16.7197 32.7803C16.8603 32.921 17.0511 33 17.25 33H30.75C30.9489 33 31.1397 32.921 31.2803 32.7803C31.421 32.6397 31.5 32.4489 31.5 32.25V24.75C31.5 23.9544 31.1839 23.1913 30.6213 22.6287C30.0587 22.0661 29.2956 21.75 28.5 21.75M19.5 21.75V20.25C19.5 19.6533 19.7371 19.081 20.159 18.659C20.581 18.2371 21.1533 18 21.75 18H26.25C26.8467 18 27.419 18.2371 27.841 18.659C28.2629 19.081 28.5 19.6533 28.5 20.25V21.75M29.25 15.75C29.25 15.3522 29.092 14.9706 28.8107 14.6893C28.5294 14.408 28.1478 14.25 27.75 14.25H21.75M24 14.25V18" stroke="white" stroke-width="1.5" stroke-linecap="round" stroke-linejoin="round"/>
</svg>
