<svg width="48" height="48" viewBox="0 0 48 48" fill="none" xmlns="http://www.w3.org/2000/svg">
<rect width="48" height="48" rx="6" fill="#EABE0D"/>
<path d="M15 24H18.75L20.25 21.75L23.25 26.25L24.75 24H27M14.6357 20.9994C14.6286 20.8751 14.625 20.7503 14.625 20.625C14.6252 19.4983 15.0156 18.4064 15.7299 17.5349C16.4442 16.6635 17.4382 16.0664 18.543 15.845C19.6478 15.6237 20.7951 15.7918 21.79 16.3208C22.7848 16.8498 23.5658 17.707 24 18.7467C24.4342 17.707 25.2152 16.8498 26.21 16.3208C27.2049 15.7918 28.3522 15.6237 29.457 15.845C30.5618 16.0664 31.5558 16.6635 32.2701 17.5349C32.9844 18.4063 33.3748 19.4983 33.375 20.625C33.375 27 24 32.25 24 32.25C24 32.25 20.2552 30.1529 17.4991 27.0001" stroke="white" stroke-width="1.5" stroke-linecap="round" stroke-linejoin="round"/>
</svg>
