<svg width="25" height="24" viewBox="0 0 25 24" fill="none" xmlns="http://www.w3.org/2000/svg">
<path d="M12.5002 2.5C13.6763 2.49964 14.8216 2.87629 15.7679 3.57467C16.7142 4.27305 17.4117 5.25638 17.758 6.38032C18.1044 7.50427 18.0813 8.70964 17.6922 9.81952C17.3032 10.9294 16.5686 11.8853 15.5962 12.547C17.2839 13.166 18.7477 14.2759 19.7992 15.7339C20.8506 17.1919 21.4417 18.9312 21.4962 20.728C21.5013 20.8277 21.4865 20.9275 21.4525 21.0214C21.4185 21.1153 21.3662 21.2015 21.2984 21.2749C21.2307 21.3483 21.149 21.4074 21.0582 21.4488C20.9673 21.4902 20.869 21.513 20.7692 21.516C20.6694 21.5189 20.57 21.5019 20.4769 21.4659C20.3837 21.4299 20.2987 21.3756 20.2268 21.3063C20.1549 21.237 20.0975 21.1541 20.0581 21.0623C20.0187 20.9706 19.998 20.8719 19.9972 20.772C19.9377 18.8235 19.1218 16.9747 17.7224 15.6174C16.3231 14.2602 14.4502 13.5011 12.5007 13.5011C10.5513 13.5011 8.67844 14.2602 7.27907 15.6174C5.8797 16.9747 5.06379 18.8235 5.00424 20.772C4.99828 20.9709 4.91354 21.1593 4.76866 21.2957C4.62379 21.4322 4.43066 21.5055 4.23174 21.4995C4.03283 21.4935 3.84444 21.4088 3.708 21.2639C3.57157 21.119 3.49828 20.9259 3.50424 20.727C3.55899 18.9304 4.15014 17.1913 5.2016 15.7335C6.25307 14.2757 7.71674 13.1659 9.40424 12.547C8.43193 11.8853 7.69732 10.9294 7.30825 9.81952C6.91917 8.70964 6.89611 7.50427 7.24245 6.38032C7.5888 5.25638 8.28631 4.27305 9.2326 3.57467C10.1789 2.87629 11.3241 2.49964 12.5002 2.5ZM8.50024 8C8.50024 9.06087 8.92167 10.0783 9.67182 10.8284C10.422 11.5786 11.4394 12 12.5002 12C13.5611 12 14.5785 11.5786 15.3287 10.8284C16.0788 10.0783 16.5002 9.06087 16.5002 8C16.5002 6.93913 16.0788 5.92172 15.3287 5.17157C14.5785 4.42143 13.5611 4 12.5002 4C11.4394 4 10.422 4.42143 9.67182 5.17157C8.92167 5.92172 8.50024 6.93913 8.50024 8Z" fill="#B8BFC9"/>
</svg>
