<svg width="305" height="632" viewBox="0 0 305 632" fill="none" xmlns="http://www.w3.org/2000/svg">
<g clip-path="url(#clip0_407_14980)">
<path d="M0 -78H4V-74H0V-78Z" fill="#E5E7EB"/>
<path d="M20 -78H24V-74H20V-78Z" fill="#E5E7EB"/>
<path d="M40 -78H44V-74H40V-78Z" fill="#E5E7EB"/>
<path d="M60 -78H64V-74H60V-78Z" fill="#E5E7EB"/>
<path d="M80 -78H84V-74H80V-78Z" fill="#E5E7EB"/>
<path d="M100 -78H104V-74H100V-78Z" fill="#E5E7EB"/>
<path d="M120 -78H124V-74H120V-78Z" fill="#E5E7EB"/>
<path d="M140 -78H144V-74H140V-78Z" fill="#E5E7EB"/>
<path d="M160 -78H164V-74H160V-78Z" fill="#E5E7EB"/>
<path d="M180 -78H184V-74H180V-78Z" fill="#E5E7EB"/>
<path d="M200 -78H204V-74H200V-78Z" fill="#E5E7EB"/>
<path d="M220 -78H224V-74H220V-78Z" fill="#E5E7EB"/>
<path d="M240 -78H244V-74H240V-78Z" fill="#E5E7EB"/>
<path d="M260 -78H264V-74H260V-78Z" fill="#E5E7EB"/>
<path d="M280 -78H284V-74H280V-78Z" fill="#E5E7EB"/>
<path d="M300 -78H304V-74H300V-78Z" fill="#E5E7EB"/>
<path d="M320 -78H324V-74H320V-78Z" fill="#E5E7EB"/>
<path d="M340 -78H344V-74H340V-78Z" fill="#E5E7EB"/>
<path d="M360 -78H364V-74H360V-78Z" fill="#E5E7EB"/>
<path d="M380 -78H384V-74H380V-78Z" fill="#E5E7EB"/>
<path d="M400 -78H404V-74H400V-78Z" fill="#E5E7EB"/>
<path d="M0 -58H4V-54H0V-58Z" fill="#E5E7EB"/>
<path d="M20 -58H24V-54H20V-58Z" fill="#E5E7EB"/>
<path d="M40 -58H44V-54H40V-58Z" fill="#E5E7EB"/>
<path d="M60 -58H64V-54H60V-58Z" fill="#E5E7EB"/>
<path d="M80 -58H84V-54H80V-58Z" fill="#E5E7EB"/>
<path d="M100 -58H104V-54H100V-58Z" fill="#E5E7EB"/>
<path d="M120 -58H124V-54H120V-58Z" fill="#E5E7EB"/>
<path d="M140 -58H144V-54H140V-58Z" fill="#E5E7EB"/>
<path d="M160 -58H164V-54H160V-58Z" fill="#E5E7EB"/>
<path d="M180 -58H184V-54H180V-58Z" fill="#E5E7EB"/>
<path d="M200 -58H204V-54H200V-58Z" fill="#E5E7EB"/>
<path d="M220 -58H224V-54H220V-58Z" fill="#E5E7EB"/>
<path d="M240 -58H244V-54H240V-58Z" fill="#E5E7EB"/>
<path d="M260 -58H264V-54H260V-58Z" fill="#E5E7EB"/>
<path d="M280 -58H284V-54H280V-58Z" fill="#E5E7EB"/>
<path d="M300 -58H304V-54H300V-58Z" fill="#E5E7EB"/>
<path d="M320 -58H324V-54H320V-58Z" fill="#E5E7EB"/>
<path d="M340 -58H344V-54H340V-58Z" fill="#E5E7EB"/>
<path d="M360 -58H364V-54H360V-58Z" fill="#E5E7EB"/>
<path d="M380 -58H384V-54H380V-58Z" fill="#E5E7EB"/>
<path d="M400 -58H404V-54H400V-58Z" fill="#E5E7EB"/>
<path d="M0 -38H4V-34H0V-38Z" fill="#E5E7EB"/>
<path d="M20 -38H24V-34H20V-38Z" fill="#E5E7EB"/>
<path d="M40 -38H44V-34H40V-38Z" fill="#E5E7EB"/>
<path d="M60 -38H64V-34H60V-38Z" fill="#E5E7EB"/>
<path d="M80 -38H84V-34H80V-38Z" fill="#E5E7EB"/>
<path d="M100 -38H104V-34H100V-38Z" fill="#E5E7EB"/>
<path d="M120 -38H124V-34H120V-38Z" fill="#E5E7EB"/>
<path d="M140 -38H144V-34H140V-38Z" fill="#E5E7EB"/>
<path d="M160 -38H164V-34H160V-38Z" fill="#E5E7EB"/>
<path d="M180 -38H184V-34H180V-38Z" fill="#E5E7EB"/>
<path d="M200 -38H204V-34H200V-38Z" fill="#E5E7EB"/>
<path d="M220 -38H224V-34H220V-38Z" fill="#E5E7EB"/>
<path d="M240 -38H244V-34H240V-38Z" fill="#E5E7EB"/>
<path d="M260 -38H264V-34H260V-38Z" fill="#E5E7EB"/>
<path d="M280 -38H284V-34H280V-38Z" fill="#E5E7EB"/>
<path d="M300 -38H304V-34H300V-38Z" fill="#E5E7EB"/>
<path d="M320 -38H324V-34H320V-38Z" fill="#E5E7EB"/>
<path d="M340 -38H344V-34H340V-38Z" fill="#E5E7EB"/>
<path d="M360 -38H364V-34H360V-38Z" fill="#E5E7EB"/>
<path d="M380 -38H384V-34H380V-38Z" fill="#E5E7EB"/>
<path d="M400 -38H404V-34H400V-38Z" fill="#E5E7EB"/>
<path d="M0 -18H4V-14H0V-18Z" fill="#E5E7EB"/>
<path d="M20 -18H24V-14H20V-18Z" fill="#E5E7EB"/>
<path d="M40 -18H44V-14H40V-18Z" fill="#E5E7EB"/>
<path d="M60 -18H64V-14H60V-18Z" fill="#E5E7EB"/>
<path d="M80 -18H84V-14H80V-18Z" fill="#E5E7EB"/>
<path d="M100 -18H104V-14H100V-18Z" fill="#E5E7EB"/>
<path d="M120 -18H124V-14H120V-18Z" fill="#E5E7EB"/>
<path d="M140 -18H144V-14H140V-18Z" fill="#E5E7EB"/>
<path d="M160 -18H164V-14H160V-18Z" fill="#E5E7EB"/>
<path d="M180 -18H184V-14H180V-18Z" fill="#E5E7EB"/>
<path d="M200 -18H204V-14H200V-18Z" fill="#E5E7EB"/>
<path d="M220 -18H224V-14H220V-18Z" fill="#E5E7EB"/>
<path d="M240 -18H244V-14H240V-18Z" fill="#E5E7EB"/>
<path d="M260 -18H264V-14H260V-18Z" fill="#E5E7EB"/>
<path d="M280 -18H284V-14H280V-18Z" fill="#E5E7EB"/>
<path d="M300 -18H304V-14H300V-18Z" fill="#E5E7EB"/>
<path d="M320 -18H324V-14H320V-18Z" fill="#E5E7EB"/>
<path d="M340 -18H344V-14H340V-18Z" fill="#E5E7EB"/>
<path d="M360 -18H364V-14H360V-18Z" fill="#E5E7EB"/>
<path d="M380 -18H384V-14H380V-18Z" fill="#E5E7EB"/>
<path d="M400 -18H404V-14H400V-18Z" fill="#E5E7EB"/>
<path d="M0 2H4V6H0V2Z" fill="#E5E7EB"/>
<path d="M20 2H24V6H20V2Z" fill="#E5E7EB"/>
<path d="M40 2H44V6H40V2Z" fill="#E5E7EB"/>
<path d="M60 2H64V6H60V2Z" fill="#E5E7EB"/>
<path d="M80 2H84V6H80V2Z" fill="#E5E7EB"/>
<path d="M100 2H104V6H100V2Z" fill="#E5E7EB"/>
<path d="M120 2H124V6H120V2Z" fill="#E5E7EB"/>
<path d="M140 2H144V6H140V2Z" fill="#E5E7EB"/>
<path d="M160 2H164V6H160V2Z" fill="#E5E7EB"/>
<path d="M180 2H184V6H180V2Z" fill="#E5E7EB"/>
<path d="M200 2H204V6H200V2Z" fill="#E5E7EB"/>
<path d="M220 2H224V6H220V2Z" fill="#E5E7EB"/>
<path d="M240 2H244V6H240V2Z" fill="#E5E7EB"/>
<path d="M260 2H264V6H260V2Z" fill="#E5E7EB"/>
<path d="M280 2H284V6H280V2Z" fill="#E5E7EB"/>
<path d="M300 2H304V6H300V2Z" fill="#E5E7EB"/>
<path d="M320 2H324V6H320V2Z" fill="#E5E7EB"/>
<path d="M340 2H344V6H340V2Z" fill="#E5E7EB"/>
<path d="M360 2H364V6H360V2Z" fill="#E5E7EB"/>
<path d="M380 2H384V6H380V2Z" fill="#E5E7EB"/>
<path d="M400 2H404V6H400V2Z" fill="#E5E7EB"/>
<path d="M0 22H4V26H0V22Z" fill="#E5E7EB"/>
<path d="M20 22H24V26H20V22Z" fill="#E5E7EB"/>
<path d="M40 22H44V26H40V22Z" fill="#E5E7EB"/>
<path d="M60 22H64V26H60V22Z" fill="#E5E7EB"/>
<path d="M80 22H84V26H80V22Z" fill="#E5E7EB"/>
<path d="M100 22H104V26H100V22Z" fill="#E5E7EB"/>
<path d="M120 22H124V26H120V22Z" fill="#E5E7EB"/>
<path d="M140 22H144V26H140V22Z" fill="#E5E7EB"/>
<path d="M160 22H164V26H160V22Z" fill="#E5E7EB"/>
<path d="M180 22H184V26H180V22Z" fill="#E5E7EB"/>
<path d="M200 22H204V26H200V22Z" fill="#E5E7EB"/>
<path d="M220 22H224V26H220V22Z" fill="#E5E7EB"/>
<path d="M240 22H244V26H240V22Z" fill="#E5E7EB"/>
<path d="M260 22H264V26H260V22Z" fill="#E5E7EB"/>
<path d="M280 22H284V26H280V22Z" fill="#E5E7EB"/>
<path d="M300 22H304V26H300V22Z" fill="#E5E7EB"/>
<path d="M320 22H324V26H320V22Z" fill="#E5E7EB"/>
<path d="M340 22H344V26H340V22Z" fill="#E5E7EB"/>
<path d="M360 22H364V26H360V22Z" fill="#E5E7EB"/>
<path d="M380 22H384V26H380V22Z" fill="#E5E7EB"/>
<path d="M400 22H404V26H400V22Z" fill="#E5E7EB"/>
<path d="M0 42H4V46H0V42Z" fill="#E5E7EB"/>
<path d="M20 42H24V46H20V42Z" fill="#E5E7EB"/>
<path d="M40 42H44V46H40V42Z" fill="#E5E7EB"/>
<path d="M60 42H64V46H60V42Z" fill="#E5E7EB"/>
<path d="M80 42H84V46H80V42Z" fill="#E5E7EB"/>
<path d="M100 42H104V46H100V42Z" fill="#E5E7EB"/>
<path d="M120 42H124V46H120V42Z" fill="#E5E7EB"/>
<path d="M140 42H144V46H140V42Z" fill="#E5E7EB"/>
<path d="M160 42H164V46H160V42Z" fill="#E5E7EB"/>
<path d="M180 42H184V46H180V42Z" fill="#E5E7EB"/>
<path d="M200 42H204V46H200V42Z" fill="#E5E7EB"/>
<path d="M220 42H224V46H220V42Z" fill="#E5E7EB"/>
<path d="M240 42H244V46H240V42Z" fill="#E5E7EB"/>
<path d="M260 42H264V46H260V42Z" fill="#E5E7EB"/>
<path d="M280 42H284V46H280V42Z" fill="#E5E7EB"/>
<path d="M300 42H304V46H300V42Z" fill="#E5E7EB"/>
<path d="M320 42H324V46H320V42Z" fill="#E5E7EB"/>
<path d="M340 42H344V46H340V42Z" fill="#E5E7EB"/>
<path d="M360 42H364V46H360V42Z" fill="#E5E7EB"/>
<path d="M380 42H384V46H380V42Z" fill="#E5E7EB"/>
<path d="M400 42H404V46H400V42Z" fill="#E5E7EB"/>
<path d="M0 62H4V66H0V62Z" fill="#E5E7EB"/>
<path d="M20 62H24V66H20V62Z" fill="#E5E7EB"/>
<path d="M40 62H44V66H40V62Z" fill="#E5E7EB"/>
<path d="M60 62H64V66H60V62Z" fill="#E5E7EB"/>
<path d="M80 62H84V66H80V62Z" fill="#E5E7EB"/>
<path d="M100 62H104V66H100V62Z" fill="#E5E7EB"/>
<path d="M120 62H124V66H120V62Z" fill="#E5E7EB"/>
<path d="M140 62H144V66H140V62Z" fill="#E5E7EB"/>
<path d="M160 62H164V66H160V62Z" fill="#E5E7EB"/>
<path d="M180 62H184V66H180V62Z" fill="#E5E7EB"/>
<path d="M200 62H204V66H200V62Z" fill="#E5E7EB"/>
<path d="M220 62H224V66H220V62Z" fill="#E5E7EB"/>
<path d="M240 62H244V66H240V62Z" fill="#E5E7EB"/>
<path d="M260 62H264V66H260V62Z" fill="#E5E7EB"/>
<path d="M280 62H284V66H280V62Z" fill="#E5E7EB"/>
<path d="M300 62H304V66H300V62Z" fill="#E5E7EB"/>
<path d="M320 62H324V66H320V62Z" fill="#E5E7EB"/>
<path d="M340 62H344V66H340V62Z" fill="#E5E7EB"/>
<path d="M360 62H364V66H360V62Z" fill="#E5E7EB"/>
<path d="M380 62H384V66H380V62Z" fill="#E5E7EB"/>
<path d="M400 62H404V66H400V62Z" fill="#E5E7EB"/>
<path d="M0 82H4V86H0V82Z" fill="#E5E7EB"/>
<path d="M20 82H24V86H20V82Z" fill="#E5E7EB"/>
<path d="M40 82H44V86H40V82Z" fill="#E5E7EB"/>
<path d="M60 82H64V86H60V82Z" fill="#E5E7EB"/>
<path d="M80 82H84V86H80V82Z" fill="#E5E7EB"/>
<path d="M100 82H104V86H100V82Z" fill="#E5E7EB"/>
<path d="M120 82H124V86H120V82Z" fill="#E5E7EB"/>
<path d="M140 82H144V86H140V82Z" fill="#E5E7EB"/>
<path d="M160 82H164V86H160V82Z" fill="#E5E7EB"/>
<path d="M180 82H184V86H180V82Z" fill="#E5E7EB"/>
<path d="M200 82H204V86H200V82Z" fill="#E5E7EB"/>
<path d="M220 82H224V86H220V82Z" fill="#E5E7EB"/>
<path d="M240 82H244V86H240V82Z" fill="#E5E7EB"/>
<path d="M260 82H264V86H260V82Z" fill="#E5E7EB"/>
<path d="M280 82H284V86H280V82Z" fill="#E5E7EB"/>
<path d="M300 82H304V86H300V82Z" fill="#E5E7EB"/>
<path d="M320 82H324V86H320V82Z" fill="#E5E7EB"/>
<path d="M340 82H344V86H340V82Z" fill="#E5E7EB"/>
<path d="M360 82H364V86H360V82Z" fill="#E5E7EB"/>
<path d="M380 82H384V86H380V82Z" fill="#E5E7EB"/>
<path d="M400 82H404V86H400V82Z" fill="#E5E7EB"/>
<path d="M0 102H4V106H0V102Z" fill="#E5E7EB"/>
<path d="M20 102H24V106H20V102Z" fill="#E5E7EB"/>
<path d="M40 102H44V106H40V102Z" fill="#E5E7EB"/>
<path d="M60 102H64V106H60V102Z" fill="#E5E7EB"/>
<path d="M80 102H84V106H80V102Z" fill="#E5E7EB"/>
<path d="M100 102H104V106H100V102Z" fill="#E5E7EB"/>
<path d="M120 102H124V106H120V102Z" fill="#E5E7EB"/>
<path d="M140 102H144V106H140V102Z" fill="#E5E7EB"/>
<path d="M160 102H164V106H160V102Z" fill="#E5E7EB"/>
<path d="M180 102H184V106H180V102Z" fill="#E5E7EB"/>
<path d="M200 102H204V106H200V102Z" fill="#E5E7EB"/>
<path d="M220 102H224V106H220V102Z" fill="#E5E7EB"/>
<path d="M240 102H244V106H240V102Z" fill="#E5E7EB"/>
<path d="M260 102H264V106H260V102Z" fill="#E5E7EB"/>
<path d="M280 102H284V106H280V102Z" fill="#E5E7EB"/>
<path d="M300 102H304V106H300V102Z" fill="#E5E7EB"/>
<path d="M320 102H324V106H320V102Z" fill="#E5E7EB"/>
<path d="M340 102H344V106H340V102Z" fill="#E5E7EB"/>
<path d="M360 102H364V106H360V102Z" fill="#E5E7EB"/>
<path d="M380 102H384V106H380V102Z" fill="#E5E7EB"/>
<path d="M400 102H404V106H400V102Z" fill="#E5E7EB"/>
<path d="M0 122H4V126H0V122Z" fill="#E5E7EB"/>
<path d="M20 122H24V126H20V122Z" fill="#E5E7EB"/>
<path d="M40 122H44V126H40V122Z" fill="#E5E7EB"/>
<path d="M60 122H64V126H60V122Z" fill="#E5E7EB"/>
<path d="M80 122H84V126H80V122Z" fill="#E5E7EB"/>
<path d="M100 122H104V126H100V122Z" fill="#E5E7EB"/>
<path d="M120 122H124V126H120V122Z" fill="#E5E7EB"/>
<path d="M140 122H144V126H140V122Z" fill="#E5E7EB"/>
<path d="M160 122H164V126H160V122Z" fill="#E5E7EB"/>
<path d="M180 122H184V126H180V122Z" fill="#E5E7EB"/>
<path d="M200 122H204V126H200V122Z" fill="#E5E7EB"/>
<path d="M220 122H224V126H220V122Z" fill="#E5E7EB"/>
<path d="M240 122H244V126H240V122Z" fill="#E5E7EB"/>
<path d="M260 122H264V126H260V122Z" fill="#E5E7EB"/>
<path d="M280 122H284V126H280V122Z" fill="#E5E7EB"/>
<path d="M300 122H304V126H300V122Z" fill="#E5E7EB"/>
<path d="M320 122H324V126H320V122Z" fill="#E5E7EB"/>
<path d="M340 122H344V126H340V122Z" fill="#E5E7EB"/>
<path d="M360 122H364V126H360V122Z" fill="#E5E7EB"/>
<path d="M380 122H384V126H380V122Z" fill="#E5E7EB"/>
<path d="M400 122H404V126H400V122Z" fill="#E5E7EB"/>
<path d="M0 142H4V146H0V142Z" fill="#E5E7EB"/>
<path d="M20 142H24V146H20V142Z" fill="#E5E7EB"/>
<path d="M40 142H44V146H40V142Z" fill="#E5E7EB"/>
<path d="M60 142H64V146H60V142Z" fill="#E5E7EB"/>
<path d="M80 142H84V146H80V142Z" fill="#E5E7EB"/>
<path d="M100 142H104V146H100V142Z" fill="#E5E7EB"/>
<path d="M120 142H124V146H120V142Z" fill="#E5E7EB"/>
<path d="M140 142H144V146H140V142Z" fill="#E5E7EB"/>
<path d="M160 142H164V146H160V142Z" fill="#E5E7EB"/>
<path d="M180 142H184V146H180V142Z" fill="#E5E7EB"/>
<path d="M200 142H204V146H200V142Z" fill="#E5E7EB"/>
<path d="M220 142H224V146H220V142Z" fill="#E5E7EB"/>
<path d="M240 142H244V146H240V142Z" fill="#E5E7EB"/>
<path d="M260 142H264V146H260V142Z" fill="#E5E7EB"/>
<path d="M280 142H284V146H280V142Z" fill="#E5E7EB"/>
<path d="M300 142H304V146H300V142Z" fill="#E5E7EB"/>
<path d="M320 142H324V146H320V142Z" fill="#E5E7EB"/>
<path d="M340 142H344V146H340V142Z" fill="#E5E7EB"/>
<path d="M360 142H364V146H360V142Z" fill="#E5E7EB"/>
<path d="M380 142H384V146H380V142Z" fill="#E5E7EB"/>
<path d="M400 142H404V146H400V142Z" fill="#E5E7EB"/>
<path d="M0 162H4V166H0V162Z" fill="#E5E7EB"/>
<path d="M20 162H24V166H20V162Z" fill="#E5E7EB"/>
<path d="M40 162H44V166H40V162Z" fill="#E5E7EB"/>
<path d="M60 162H64V166H60V162Z" fill="#E5E7EB"/>
<path d="M80 162H84V166H80V162Z" fill="#E5E7EB"/>
<path d="M100 162H104V166H100V162Z" fill="#E5E7EB"/>
<path d="M120 162H124V166H120V162Z" fill="#E5E7EB"/>
<path d="M140 162H144V166H140V162Z" fill="#E5E7EB"/>
<path d="M160 162H164V166H160V162Z" fill="#E5E7EB"/>
<path d="M180 162H184V166H180V162Z" fill="#E5E7EB"/>
<path d="M200 162H204V166H200V162Z" fill="#E5E7EB"/>
<path d="M220 162H224V166H220V162Z" fill="#E5E7EB"/>
<path d="M240 162H244V166H240V162Z" fill="#E5E7EB"/>
<path d="M260 162H264V166H260V162Z" fill="#E5E7EB"/>
<path d="M280 162H284V166H280V162Z" fill="#E5E7EB"/>
<path d="M300 162H304V166H300V162Z" fill="#E5E7EB"/>
<path d="M320 162H324V166H320V162Z" fill="#E5E7EB"/>
<path d="M340 162H344V166H340V162Z" fill="#E5E7EB"/>
<path d="M360 162H364V166H360V162Z" fill="#E5E7EB"/>
<path d="M380 162H384V166H380V162Z" fill="#E5E7EB"/>
<path d="M400 162H404V166H400V162Z" fill="#E5E7EB"/>
<path d="M0 182H4V186H0V182Z" fill="#E5E7EB"/>
<path d="M20 182H24V186H20V182Z" fill="#E5E7EB"/>
<path d="M40 182H44V186H40V182Z" fill="#E5E7EB"/>
<path d="M60 182H64V186H60V182Z" fill="#E5E7EB"/>
<path d="M80 182H84V186H80V182Z" fill="#E5E7EB"/>
<path d="M100 182H104V186H100V182Z" fill="#E5E7EB"/>
<path d="M120 182H124V186H120V182Z" fill="#E5E7EB"/>
<path d="M140 182H144V186H140V182Z" fill="#E5E7EB"/>
<path d="M160 182H164V186H160V182Z" fill="#E5E7EB"/>
<path d="M180 182H184V186H180V182Z" fill="#E5E7EB"/>
<path d="M200 182H204V186H200V182Z" fill="#E5E7EB"/>
<path d="M220 182H224V186H220V182Z" fill="#E5E7EB"/>
<path d="M240 182H244V186H240V182Z" fill="#E5E7EB"/>
<path d="M260 182H264V186H260V182Z" fill="#E5E7EB"/>
<path d="M280 182H284V186H280V182Z" fill="#E5E7EB"/>
<path d="M300 182H304V186H300V182Z" fill="#E5E7EB"/>
<path d="M320 182H324V186H320V182Z" fill="#E5E7EB"/>
<path d="M340 182H344V186H340V182Z" fill="#E5E7EB"/>
<path d="M360 182H364V186H360V182Z" fill="#E5E7EB"/>
<path d="M380 182H384V186H380V182Z" fill="#E5E7EB"/>
<path d="M400 182H404V186H400V182Z" fill="#E5E7EB"/>
<path d="M0 202H4V206H0V202Z" fill="#E5E7EB"/>
<path d="M20 202H24V206H20V202Z" fill="#E5E7EB"/>
<path d="M40 202H44V206H40V202Z" fill="#E5E7EB"/>
<path d="M60 202H64V206H60V202Z" fill="#E5E7EB"/>
<path d="M80 202H84V206H80V202Z" fill="#E5E7EB"/>
<path d="M100 202H104V206H100V202Z" fill="#E5E7EB"/>
<path d="M120 202H124V206H120V202Z" fill="#E5E7EB"/>
<path d="M140 202H144V206H140V202Z" fill="#E5E7EB"/>
<path d="M160 202H164V206H160V202Z" fill="#E5E7EB"/>
<path d="M180 202H184V206H180V202Z" fill="#E5E7EB"/>
<path d="M200 202H204V206H200V202Z" fill="#E5E7EB"/>
<path d="M220 202H224V206H220V202Z" fill="#E5E7EB"/>
<path d="M240 202H244V206H240V202Z" fill="#E5E7EB"/>
<path d="M260 202H264V206H260V202Z" fill="#E5E7EB"/>
<path d="M280 202H284V206H280V202Z" fill="#E5E7EB"/>
<path d="M300 202H304V206H300V202Z" fill="#E5E7EB"/>
<path d="M320 202H324V206H320V202Z" fill="#E5E7EB"/>
<path d="M340 202H344V206H340V202Z" fill="#E5E7EB"/>
<path d="M360 202H364V206H360V202Z" fill="#E5E7EB"/>
<path d="M380 202H384V206H380V202Z" fill="#E5E7EB"/>
<path d="M400 202H404V206H400V202Z" fill="#E5E7EB"/>
<path d="M0 222H4V226H0V222Z" fill="#E5E7EB"/>
<path d="M20 222H24V226H20V222Z" fill="#E5E7EB"/>
<path d="M40 222H44V226H40V222Z" fill="#E5E7EB"/>
<path d="M60 222H64V226H60V222Z" fill="#E5E7EB"/>
<path d="M80 222H84V226H80V222Z" fill="#E5E7EB"/>
<path d="M100 222H104V226H100V222Z" fill="#E5E7EB"/>
<path d="M120 222H124V226H120V222Z" fill="#E5E7EB"/>
<path d="M140 222H144V226H140V222Z" fill="#E5E7EB"/>
<path d="M160 222H164V226H160V222Z" fill="#E5E7EB"/>
<path d="M180 222H184V226H180V222Z" fill="#E5E7EB"/>
<path d="M200 222H204V226H200V222Z" fill="#E5E7EB"/>
<path d="M220 222H224V226H220V222Z" fill="#E5E7EB"/>
<path d="M240 222H244V226H240V222Z" fill="#E5E7EB"/>
<path d="M260 222H264V226H260V222Z" fill="#E5E7EB"/>
<path d="M280 222H284V226H280V222Z" fill="#E5E7EB"/>
<path d="M300 222H304V226H300V222Z" fill="#E5E7EB"/>
<path d="M320 222H324V226H320V222Z" fill="#E5E7EB"/>
<path d="M340 222H344V226H340V222Z" fill="#E5E7EB"/>
<path d="M360 222H364V226H360V222Z" fill="#E5E7EB"/>
<path d="M380 222H384V226H380V222Z" fill="#E5E7EB"/>
<path d="M400 222H404V226H400V222Z" fill="#E5E7EB"/>
<path d="M0 242H4V246H0V242Z" fill="#E5E7EB"/>
<path d="M20 242H24V246H20V242Z" fill="#E5E7EB"/>
<path d="M40 242H44V246H40V242Z" fill="#E5E7EB"/>
<path d="M60 242H64V246H60V242Z" fill="#E5E7EB"/>
<path d="M80 242H84V246H80V242Z" fill="#E5E7EB"/>
<path d="M100 242H104V246H100V242Z" fill="#E5E7EB"/>
<path d="M120 242H124V246H120V242Z" fill="#E5E7EB"/>
<path d="M140 242H144V246H140V242Z" fill="#E5E7EB"/>
<path d="M160 242H164V246H160V242Z" fill="#E5E7EB"/>
<path d="M180 242H184V246H180V242Z" fill="#E5E7EB"/>
<path d="M200 242H204V246H200V242Z" fill="#E5E7EB"/>
<path d="M220 242H224V246H220V242Z" fill="#E5E7EB"/>
<path d="M240 242H244V246H240V242Z" fill="#E5E7EB"/>
<path d="M260 242H264V246H260V242Z" fill="#E5E7EB"/>
<path d="M280 242H284V246H280V242Z" fill="#E5E7EB"/>
<path d="M300 242H304V246H300V242Z" fill="#E5E7EB"/>
<path d="M320 242H324V246H320V242Z" fill="#E5E7EB"/>
<path d="M340 242H344V246H340V242Z" fill="#E5E7EB"/>
<path d="M360 242H364V246H360V242Z" fill="#E5E7EB"/>
<path d="M380 242H384V246H380V242Z" fill="#E5E7EB"/>
<path d="M400 242H404V246H400V242Z" fill="#E5E7EB"/>
<path d="M0 262H4V266H0V262Z" fill="#E5E7EB"/>
<path d="M20 262H24V266H20V262Z" fill="#E5E7EB"/>
<path d="M40 262H44V266H40V262Z" fill="#E5E7EB"/>
<path d="M60 262H64V266H60V262Z" fill="#E5E7EB"/>
<path d="M80 262H84V266H80V262Z" fill="#E5E7EB"/>
<path d="M100 262H104V266H100V262Z" fill="#E5E7EB"/>
<path d="M120 262H124V266H120V262Z" fill="#E5E7EB"/>
<path d="M140 262H144V266H140V262Z" fill="#E5E7EB"/>
<path d="M160 262H164V266H160V262Z" fill="#E5E7EB"/>
<path d="M180 262H184V266H180V262Z" fill="#E5E7EB"/>
<path d="M200 262H204V266H200V262Z" fill="#E5E7EB"/>
<path d="M220 262H224V266H220V262Z" fill="#E5E7EB"/>
<path d="M240 262H244V266H240V262Z" fill="#E5E7EB"/>
<path d="M260 262H264V266H260V262Z" fill="#E5E7EB"/>
<path d="M280 262H284V266H280V262Z" fill="#E5E7EB"/>
<path d="M300 262H304V266H300V262Z" fill="#E5E7EB"/>
<path d="M320 262H324V266H320V262Z" fill="#E5E7EB"/>
<path d="M340 262H344V266H340V262Z" fill="#E5E7EB"/>
<path d="M360 262H364V266H360V262Z" fill="#E5E7EB"/>
<path d="M380 262H384V266H380V262Z" fill="#E5E7EB"/>
<path d="M400 262H404V266H400V262Z" fill="#E5E7EB"/>
<path d="M0 282H4V286H0V282Z" fill="#E5E7EB"/>
<path d="M20 282H24V286H20V282Z" fill="#E5E7EB"/>
<path d="M40 282H44V286H40V282Z" fill="#E5E7EB"/>
<path d="M60 282H64V286H60V282Z" fill="#E5E7EB"/>
<path d="M80 282H84V286H80V282Z" fill="#E5E7EB"/>
<path d="M100 282H104V286H100V282Z" fill="#E5E7EB"/>
<path d="M120 282H124V286H120V282Z" fill="#E5E7EB"/>
<path d="M140 282H144V286H140V282Z" fill="#E5E7EB"/>
<path d="M160 282H164V286H160V282Z" fill="#E5E7EB"/>
<path d="M180 282H184V286H180V282Z" fill="#E5E7EB"/>
<path d="M200 282H204V286H200V282Z" fill="#E5E7EB"/>
<path d="M220 282H224V286H220V282Z" fill="#E5E7EB"/>
<path d="M240 282H244V286H240V282Z" fill="#E5E7EB"/>
<path d="M260 282H264V286H260V282Z" fill="#E5E7EB"/>
<path d="M280 282H284V286H280V282Z" fill="#E5E7EB"/>
<path d="M300 282H304V286H300V282Z" fill="#E5E7EB"/>
<path d="M320 282H324V286H320V282Z" fill="#E5E7EB"/>
<path d="M340 282H344V286H340V282Z" fill="#E5E7EB"/>
<path d="M360 282H364V286H360V282Z" fill="#E5E7EB"/>
<path d="M380 282H384V286H380V282Z" fill="#E5E7EB"/>
<path d="M400 282H404V286H400V282Z" fill="#E5E7EB"/>
<path d="M0 302H4V306H0V302Z" fill="#E5E7EB"/>
<path d="M20 302H24V306H20V302Z" fill="#E5E7EB"/>
<path d="M40 302H44V306H40V302Z" fill="#E5E7EB"/>
<path d="M60 302H64V306H60V302Z" fill="#E5E7EB"/>
<path d="M80 302H84V306H80V302Z" fill="#E5E7EB"/>
<path d="M100 302H104V306H100V302Z" fill="#E5E7EB"/>
<path d="M120 302H124V306H120V302Z" fill="#E5E7EB"/>
<path d="M140 302H144V306H140V302Z" fill="#E5E7EB"/>
<path d="M160 302H164V306H160V302Z" fill="#E5E7EB"/>
<path d="M180 302H184V306H180V302Z" fill="#E5E7EB"/>
<path d="M200 302H204V306H200V302Z" fill="#E5E7EB"/>
<path d="M220 302H224V306H220V302Z" fill="#E5E7EB"/>
<path d="M240 302H244V306H240V302Z" fill="#E5E7EB"/>
<path d="M260 302H264V306H260V302Z" fill="#E5E7EB"/>
<path d="M280 302H284V306H280V302Z" fill="#E5E7EB"/>
<path d="M300 302H304V306H300V302Z" fill="#E5E7EB"/>
<path d="M320 302H324V306H320V302Z" fill="#E5E7EB"/>
<path d="M340 302H344V306H340V302Z" fill="#E5E7EB"/>
<path d="M360 302H364V306H360V302Z" fill="#E5E7EB"/>
<path d="M380 302H384V306H380V302Z" fill="#E5E7EB"/>
<path d="M400 302H404V306H400V302Z" fill="#E5E7EB"/>
<path d="M0 322H4V326H0V322Z" fill="#E5E7EB"/>
<path d="M20 322H24V326H20V322Z" fill="#E5E7EB"/>
<path d="M40 322H44V326H40V322Z" fill="#E5E7EB"/>
<path d="M60 322H64V326H60V322Z" fill="#E5E7EB"/>
<path d="M80 322H84V326H80V322Z" fill="#E5E7EB"/>
<path d="M100 322H104V326H100V322Z" fill="#E5E7EB"/>
<path d="M120 322H124V326H120V322Z" fill="#E5E7EB"/>
<path d="M140 322H144V326H140V322Z" fill="#E5E7EB"/>
<path d="M160 322H164V326H160V322Z" fill="#E5E7EB"/>
<path d="M180 322H184V326H180V322Z" fill="#E5E7EB"/>
<path d="M200 322H204V326H200V322Z" fill="#E5E7EB"/>
<path d="M220 322H224V326H220V322Z" fill="#E5E7EB"/>
<path d="M240 322H244V326H240V322Z" fill="#E5E7EB"/>
<path d="M260 322H264V326H260V322Z" fill="#E5E7EB"/>
<path d="M280 322H284V326H280V322Z" fill="#E5E7EB"/>
<path d="M300 322H304V326H300V322Z" fill="#E5E7EB"/>
<path d="M320 322H324V326H320V322Z" fill="#E5E7EB"/>
<path d="M340 322H344V326H340V322Z" fill="#E5E7EB"/>
<path d="M360 322H364V326H360V322Z" fill="#E5E7EB"/>
<path d="M380 322H384V326H380V322Z" fill="#E5E7EB"/>
<path d="M400 322H404V326H400V322Z" fill="#E5E7EB"/>
<path d="M0 342H4V346H0V342Z" fill="#E5E7EB"/>
<path d="M20 342H24V346H20V342Z" fill="#E5E7EB"/>
<path d="M40 342H44V346H40V342Z" fill="#E5E7EB"/>
<path d="M60 342H64V346H60V342Z" fill="#E5E7EB"/>
<path d="M80 342H84V346H80V342Z" fill="#E5E7EB"/>
<path d="M100 342H104V346H100V342Z" fill="#E5E7EB"/>
<path d="M120 342H124V346H120V342Z" fill="#E5E7EB"/>
<path d="M140 342H144V346H140V342Z" fill="#E5E7EB"/>
<path d="M160 342H164V346H160V342Z" fill="#E5E7EB"/>
<path d="M180 342H184V346H180V342Z" fill="#E5E7EB"/>
<path d="M200 342H204V346H200V342Z" fill="#E5E7EB"/>
<path d="M220 342H224V346H220V342Z" fill="#E5E7EB"/>
<path d="M240 342H244V346H240V342Z" fill="#E5E7EB"/>
<path d="M260 342H264V346H260V342Z" fill="#E5E7EB"/>
<path d="M280 342H284V346H280V342Z" fill="#E5E7EB"/>
<path d="M300 342H304V346H300V342Z" fill="#E5E7EB"/>
<path d="M320 342H324V346H320V342Z" fill="#E5E7EB"/>
<path d="M340 342H344V346H340V342Z" fill="#E5E7EB"/>
<path d="M360 342H364V346H360V342Z" fill="#E5E7EB"/>
<path d="M380 342H384V346H380V342Z" fill="#E5E7EB"/>
<path d="M400 342H404V346H400V342Z" fill="#E5E7EB"/>
<path d="M0 362H4V366H0V362Z" fill="#E5E7EB"/>
<path d="M20 362H24V366H20V362Z" fill="#E5E7EB"/>
<path d="M40 362H44V366H40V362Z" fill="#E5E7EB"/>
<path d="M60 362H64V366H60V362Z" fill="#E5E7EB"/>
<path d="M80 362H84V366H80V362Z" fill="#E5E7EB"/>
<path d="M100 362H104V366H100V362Z" fill="#E5E7EB"/>
<path d="M120 362H124V366H120V362Z" fill="#E5E7EB"/>
<path d="M140 362H144V366H140V362Z" fill="#E5E7EB"/>
<path d="M160 362H164V366H160V362Z" fill="#E5E7EB"/>
<path d="M180 362H184V366H180V362Z" fill="#E5E7EB"/>
<path d="M200 362H204V366H200V362Z" fill="#E5E7EB"/>
<path d="M220 362H224V366H220V362Z" fill="#E5E7EB"/>
<path d="M240 362H244V366H240V362Z" fill="#E5E7EB"/>
<path d="M260 362H264V366H260V362Z" fill="#E5E7EB"/>
<path d="M280 362H284V366H280V362Z" fill="#E5E7EB"/>
<path d="M300 362H304V366H300V362Z" fill="#E5E7EB"/>
<path d="M320 362H324V366H320V362Z" fill="#E5E7EB"/>
<path d="M340 362H344V366H340V362Z" fill="#E5E7EB"/>
<path d="M360 362H364V366H360V362Z" fill="#E5E7EB"/>
<path d="M380 362H384V366H380V362Z" fill="#E5E7EB"/>
<path d="M400 362H404V366H400V362Z" fill="#E5E7EB"/>
<path d="M0 382H4V386H0V382Z" fill="#E5E7EB"/>
<path d="M20 382H24V386H20V382Z" fill="#E5E7EB"/>
<path d="M40 382H44V386H40V382Z" fill="#E5E7EB"/>
<path d="M60 382H64V386H60V382Z" fill="#E5E7EB"/>
<path d="M80 382H84V386H80V382Z" fill="#E5E7EB"/>
<path d="M100 382H104V386H100V382Z" fill="#E5E7EB"/>
<path d="M120 382H124V386H120V382Z" fill="#E5E7EB"/>
<path d="M140 382H144V386H140V382Z" fill="#E5E7EB"/>
<path d="M160 382H164V386H160V382Z" fill="#E5E7EB"/>
<path d="M180 382H184V386H180V382Z" fill="#E5E7EB"/>
<path d="M200 382H204V386H200V382Z" fill="#E5E7EB"/>
<path d="M220 382H224V386H220V382Z" fill="#E5E7EB"/>
<path d="M240 382H244V386H240V382Z" fill="#E5E7EB"/>
<path d="M260 382H264V386H260V382Z" fill="#E5E7EB"/>
<path d="M280 382H284V386H280V382Z" fill="#E5E7EB"/>
<path d="M300 382H304V386H300V382Z" fill="#E5E7EB"/>
<path d="M320 382H324V386H320V382Z" fill="#E5E7EB"/>
<path d="M340 382H344V386H340V382Z" fill="#E5E7EB"/>
<path d="M360 382H364V386H360V382Z" fill="#E5E7EB"/>
<path d="M380 382H384V386H380V382Z" fill="#E5E7EB"/>
<path d="M400 382H404V386H400V382Z" fill="#E5E7EB"/>
<path d="M0 402H4V406H0V402Z" fill="#E5E7EB"/>
<path d="M20 402H24V406H20V402Z" fill="#E5E7EB"/>
<path d="M40 402H44V406H40V402Z" fill="#E5E7EB"/>
<path d="M60 402H64V406H60V402Z" fill="#E5E7EB"/>
<path d="M80 402H84V406H80V402Z" fill="#E5E7EB"/>
<path d="M100 402H104V406H100V402Z" fill="#E5E7EB"/>
<path d="M120 402H124V406H120V402Z" fill="#E5E7EB"/>
<path d="M140 402H144V406H140V402Z" fill="#E5E7EB"/>
<path d="M160 402H164V406H160V402Z" fill="#E5E7EB"/>
<path d="M180 402H184V406H180V402Z" fill="#E5E7EB"/>
<path d="M200 402H204V406H200V402Z" fill="#E5E7EB"/>
<path d="M220 402H224V406H220V402Z" fill="#E5E7EB"/>
<path d="M240 402H244V406H240V402Z" fill="#E5E7EB"/>
<path d="M260 402H264V406H260V402Z" fill="#E5E7EB"/>
<path d="M280 402H284V406H280V402Z" fill="#E5E7EB"/>
<path d="M300 402H304V406H300V402Z" fill="#E5E7EB"/>
<path d="M320 402H324V406H320V402Z" fill="#E5E7EB"/>
<path d="M340 402H344V406H340V402Z" fill="#E5E7EB"/>
<path d="M360 402H364V406H360V402Z" fill="#E5E7EB"/>
<path d="M380 402H384V406H380V402Z" fill="#E5E7EB"/>
<path d="M400 402H404V406H400V402Z" fill="#E5E7EB"/>
<path d="M0 422H4V426H0V422Z" fill="#E5E7EB"/>
<path d="M20 422H24V426H20V422Z" fill="#E5E7EB"/>
<path d="M40 422H44V426H40V422Z" fill="#E5E7EB"/>
<path d="M60 422H64V426H60V422Z" fill="#E5E7EB"/>
<path d="M80 422H84V426H80V422Z" fill="#E5E7EB"/>
<path d="M100 422H104V426H100V422Z" fill="#E5E7EB"/>
<path d="M120 422H124V426H120V422Z" fill="#E5E7EB"/>
<path d="M140 422H144V426H140V422Z" fill="#E5E7EB"/>
<path d="M160 422H164V426H160V422Z" fill="#E5E7EB"/>
<path d="M180 422H184V426H180V422Z" fill="#E5E7EB"/>
<path d="M200 422H204V426H200V422Z" fill="#E5E7EB"/>
<path d="M220 422H224V426H220V422Z" fill="#E5E7EB"/>
<path d="M240 422H244V426H240V422Z" fill="#E5E7EB"/>
<path d="M260 422H264V426H260V422Z" fill="#E5E7EB"/>
<path d="M280 422H284V426H280V422Z" fill="#E5E7EB"/>
<path d="M300 422H304V426H300V422Z" fill="#E5E7EB"/>
<path d="M320 422H324V426H320V422Z" fill="#E5E7EB"/>
<path d="M340 422H344V426H340V422Z" fill="#E5E7EB"/>
<path d="M360 422H364V426H360V422Z" fill="#E5E7EB"/>
<path d="M380 422H384V426H380V422Z" fill="#E5E7EB"/>
<path d="M400 422H404V426H400V422Z" fill="#E5E7EB"/>
<path d="M0 442H4V446H0V442Z" fill="#E5E7EB"/>
<path d="M20 442H24V446H20V442Z" fill="#E5E7EB"/>
<path d="M40 442H44V446H40V442Z" fill="#E5E7EB"/>
<path d="M60 442H64V446H60V442Z" fill="#E5E7EB"/>
<path d="M80 442H84V446H80V442Z" fill="#E5E7EB"/>
<path d="M100 442H104V446H100V442Z" fill="#E5E7EB"/>
<path d="M120 442H124V446H120V442Z" fill="#E5E7EB"/>
<path d="M140 442H144V446H140V442Z" fill="#E5E7EB"/>
<path d="M160 442H164V446H160V442Z" fill="#E5E7EB"/>
<path d="M180 442H184V446H180V442Z" fill="#E5E7EB"/>
<path d="M200 442H204V446H200V442Z" fill="#E5E7EB"/>
<path d="M220 442H224V446H220V442Z" fill="#E5E7EB"/>
<path d="M240 442H244V446H240V442Z" fill="#E5E7EB"/>
<path d="M260 442H264V446H260V442Z" fill="#E5E7EB"/>
<path d="M280 442H284V446H280V442Z" fill="#E5E7EB"/>
<path d="M300 442H304V446H300V442Z" fill="#E5E7EB"/>
<path d="M320 442H324V446H320V442Z" fill="#E5E7EB"/>
<path d="M340 442H344V446H340V442Z" fill="#E5E7EB"/>
<path d="M360 442H364V446H360V442Z" fill="#E5E7EB"/>
<path d="M380 442H384V446H380V442Z" fill="#E5E7EB"/>
<path d="M400 442H404V446H400V442Z" fill="#E5E7EB"/>
<path d="M0 462H4V466H0V462Z" fill="#E5E7EB"/>
<path d="M20 462H24V466H20V462Z" fill="#E5E7EB"/>
<path d="M40 462H44V466H40V462Z" fill="#E5E7EB"/>
<path d="M60 462H64V466H60V462Z" fill="#E5E7EB"/>
<path d="M80 462H84V466H80V462Z" fill="#E5E7EB"/>
<path d="M100 462H104V466H100V462Z" fill="#E5E7EB"/>
<path d="M120 462H124V466H120V462Z" fill="#E5E7EB"/>
<path d="M140 462H144V466H140V462Z" fill="#E5E7EB"/>
<path d="M160 462H164V466H160V462Z" fill="#E5E7EB"/>
<path d="M180 462H184V466H180V462Z" fill="#E5E7EB"/>
<path d="M200 462H204V466H200V462Z" fill="#E5E7EB"/>
<path d="M220 462H224V466H220V462Z" fill="#E5E7EB"/>
<path d="M240 462H244V466H240V462Z" fill="#E5E7EB"/>
<path d="M260 462H264V466H260V462Z" fill="#E5E7EB"/>
<path d="M280 462H284V466H280V462Z" fill="#E5E7EB"/>
<path d="M300 462H304V466H300V462Z" fill="#E5E7EB"/>
<path d="M320 462H324V466H320V462Z" fill="#E5E7EB"/>
<path d="M340 462H344V466H340V462Z" fill="#E5E7EB"/>
<path d="M360 462H364V466H360V462Z" fill="#E5E7EB"/>
<path d="M380 462H384V466H380V462Z" fill="#E5E7EB"/>
<path d="M400 462H404V466H400V462Z" fill="#E5E7EB"/>
<path d="M0 482H4V486H0V482Z" fill="#E5E7EB"/>
<path d="M20 482H24V486H20V482Z" fill="#E5E7EB"/>
<path d="M40 482H44V486H40V482Z" fill="#E5E7EB"/>
<path d="M60 482H64V486H60V482Z" fill="#E5E7EB"/>
<path d="M80 482H84V486H80V482Z" fill="#E5E7EB"/>
<path d="M100 482H104V486H100V482Z" fill="#E5E7EB"/>
<path d="M120 482H124V486H120V482Z" fill="#E5E7EB"/>
<path d="M140 482H144V486H140V482Z" fill="#E5E7EB"/>
<path d="M160 482H164V486H160V482Z" fill="#E5E7EB"/>
<path d="M180 482H184V486H180V482Z" fill="#E5E7EB"/>
<path d="M200 482H204V486H200V482Z" fill="#E5E7EB"/>
<path d="M220 482H224V486H220V482Z" fill="#E5E7EB"/>
<path d="M240 482H244V486H240V482Z" fill="#E5E7EB"/>
<path d="M260 482H264V486H260V482Z" fill="#E5E7EB"/>
<path d="M280 482H284V486H280V482Z" fill="#E5E7EB"/>
<path d="M300 482H304V486H300V482Z" fill="#E5E7EB"/>
<path d="M320 482H324V486H320V482Z" fill="#E5E7EB"/>
<path d="M340 482H344V486H340V482Z" fill="#E5E7EB"/>
<path d="M360 482H364V486H360V482Z" fill="#E5E7EB"/>
<path d="M380 482H384V486H380V482Z" fill="#E5E7EB"/>
<path d="M400 482H404V486H400V482Z" fill="#E5E7EB"/>
<path d="M0 502H4V506H0V502Z" fill="#E5E7EB"/>
<path d="M20 502H24V506H20V502Z" fill="#E5E7EB"/>
<path d="M40 502H44V506H40V502Z" fill="#E5E7EB"/>
<path d="M60 502H64V506H60V502Z" fill="#E5E7EB"/>
<path d="M80 502H84V506H80V502Z" fill="#E5E7EB"/>
<path d="M100 502H104V506H100V502Z" fill="#E5E7EB"/>
<path d="M120 502H124V506H120V502Z" fill="#E5E7EB"/>
<path d="M140 502H144V506H140V502Z" fill="#E5E7EB"/>
<path d="M160 502H164V506H160V502Z" fill="#E5E7EB"/>
<path d="M180 502H184V506H180V502Z" fill="#E5E7EB"/>
<path d="M200 502H204V506H200V502Z" fill="#E5E7EB"/>
<path d="M220 502H224V506H220V502Z" fill="#E5E7EB"/>
<path d="M240 502H244V506H240V502Z" fill="#E5E7EB"/>
<path d="M260 502H264V506H260V502Z" fill="#E5E7EB"/>
<path d="M280 502H284V506H280V502Z" fill="#E5E7EB"/>
<path d="M300 502H304V506H300V502Z" fill="#E5E7EB"/>
<path d="M320 502H324V506H320V502Z" fill="#E5E7EB"/>
<path d="M340 502H344V506H340V502Z" fill="#E5E7EB"/>
<path d="M360 502H364V506H360V502Z" fill="#E5E7EB"/>
<path d="M380 502H384V506H380V502Z" fill="#E5E7EB"/>
<path d="M400 502H404V506H400V502Z" fill="#E5E7EB"/>
<path d="M0 522H4V526H0V522Z" fill="#E5E7EB"/>
<path d="M20 522H24V526H20V522Z" fill="#E5E7EB"/>
<path d="M40 522H44V526H40V522Z" fill="#E5E7EB"/>
<path d="M60 522H64V526H60V522Z" fill="#E5E7EB"/>
<path d="M80 522H84V526H80V522Z" fill="#E5E7EB"/>
<path d="M100 522H104V526H100V522Z" fill="#E5E7EB"/>
<path d="M120 522H124V526H120V522Z" fill="#E5E7EB"/>
<path d="M140 522H144V526H140V522Z" fill="#E5E7EB"/>
<path d="M160 522H164V526H160V522Z" fill="#E5E7EB"/>
<path d="M180 522H184V526H180V522Z" fill="#E5E7EB"/>
<path d="M200 522H204V526H200V522Z" fill="#E5E7EB"/>
<path d="M220 522H224V526H220V522Z" fill="#E5E7EB"/>
<path d="M240 522H244V526H240V522Z" fill="#E5E7EB"/>
<path d="M260 522H264V526H260V522Z" fill="#E5E7EB"/>
<path d="M280 522H284V526H280V522Z" fill="#E5E7EB"/>
<path d="M300 522H304V526H300V522Z" fill="#E5E7EB"/>
<path d="M320 522H324V526H320V522Z" fill="#E5E7EB"/>
<path d="M340 522H344V526H340V522Z" fill="#E5E7EB"/>
<path d="M360 522H364V526H360V522Z" fill="#E5E7EB"/>
<path d="M380 522H384V526H380V522Z" fill="#E5E7EB"/>
<path d="M400 522H404V526H400V522Z" fill="#E5E7EB"/>
<path d="M0 542H4V546H0V542Z" fill="#E5E7EB"/>
<path d="M20 542H24V546H20V542Z" fill="#E5E7EB"/>
<path d="M40 542H44V546H40V542Z" fill="#E5E7EB"/>
<path d="M60 542H64V546H60V542Z" fill="#E5E7EB"/>
<path d="M80 542H84V546H80V542Z" fill="#E5E7EB"/>
<path d="M100 542H104V546H100V542Z" fill="#E5E7EB"/>
<path d="M120 542H124V546H120V542Z" fill="#E5E7EB"/>
<path d="M140 542H144V546H140V542Z" fill="#E5E7EB"/>
<path d="M160 542H164V546H160V542Z" fill="#E5E7EB"/>
<path d="M180 542H184V546H180V542Z" fill="#E5E7EB"/>
<path d="M200 542H204V546H200V542Z" fill="#E5E7EB"/>
<path d="M220 542H224V546H220V542Z" fill="#E5E7EB"/>
<path d="M240 542H244V546H240V542Z" fill="#E5E7EB"/>
<path d="M260 542H264V546H260V542Z" fill="#E5E7EB"/>
<path d="M280 542H284V546H280V542Z" fill="#E5E7EB"/>
<path d="M300 542H304V546H300V542Z" fill="#E5E7EB"/>
<path d="M320 542H324V546H320V542Z" fill="#E5E7EB"/>
<path d="M340 542H344V546H340V542Z" fill="#E5E7EB"/>
<path d="M360 542H364V546H360V542Z" fill="#E5E7EB"/>
<path d="M380 542H384V546H380V542Z" fill="#E5E7EB"/>
<path d="M400 542H404V546H400V542Z" fill="#E5E7EB"/>
<path d="M0 562H4V566H0V562Z" fill="#E5E7EB"/>
<path d="M20 562H24V566H20V562Z" fill="#E5E7EB"/>
<path d="M40 562H44V566H40V562Z" fill="#E5E7EB"/>
<path d="M60 562H64V566H60V562Z" fill="#E5E7EB"/>
<path d="M80 562H84V566H80V562Z" fill="#E5E7EB"/>
<path d="M100 562H104V566H100V562Z" fill="#E5E7EB"/>
<path d="M120 562H124V566H120V562Z" fill="#E5E7EB"/>
<path d="M140 562H144V566H140V562Z" fill="#E5E7EB"/>
<path d="M160 562H164V566H160V562Z" fill="#E5E7EB"/>
<path d="M180 562H184V566H180V562Z" fill="#E5E7EB"/>
<path d="M200 562H204V566H200V562Z" fill="#E5E7EB"/>
<path d="M220 562H224V566H220V562Z" fill="#E5E7EB"/>
<path d="M240 562H244V566H240V562Z" fill="#E5E7EB"/>
<path d="M260 562H264V566H260V562Z" fill="#E5E7EB"/>
<path d="M280 562H284V566H280V562Z" fill="#E5E7EB"/>
<path d="M300 562H304V566H300V562Z" fill="#E5E7EB"/>
<path d="M320 562H324V566H320V562Z" fill="#E5E7EB"/>
<path d="M340 562H344V566H340V562Z" fill="#E5E7EB"/>
<path d="M360 562H364V566H360V562Z" fill="#E5E7EB"/>
<path d="M380 562H384V566H380V562Z" fill="#E5E7EB"/>
<path d="M400 562H404V566H400V562Z" fill="#E5E7EB"/>
<path d="M0 582H4V586H0V582Z" fill="#E5E7EB"/>
<path d="M20 582H24V586H20V582Z" fill="#E5E7EB"/>
<path d="M40 582H44V586H40V582Z" fill="#E5E7EB"/>
<path d="M60 582H64V586H60V582Z" fill="#E5E7EB"/>
<path d="M80 582H84V586H80V582Z" fill="#E5E7EB"/>
<path d="M100 582H104V586H100V582Z" fill="#E5E7EB"/>
<path d="M120 582H124V586H120V582Z" fill="#E5E7EB"/>
<path d="M140 582H144V586H140V582Z" fill="#E5E7EB"/>
<path d="M160 582H164V586H160V582Z" fill="#E5E7EB"/>
<path d="M180 582H184V586H180V582Z" fill="#E5E7EB"/>
<path d="M200 582H204V586H200V582Z" fill="#E5E7EB"/>
<path d="M220 582H224V586H220V582Z" fill="#E5E7EB"/>
<path d="M240 582H244V586H240V582Z" fill="#E5E7EB"/>
<path d="M260 582H264V586H260V582Z" fill="#E5E7EB"/>
<path d="M280 582H284V586H280V582Z" fill="#E5E7EB"/>
<path d="M300 582H304V586H300V582Z" fill="#E5E7EB"/>
<path d="M320 582H324V586H320V582Z" fill="#E5E7EB"/>
<path d="M340 582H344V586H340V582Z" fill="#E5E7EB"/>
<path d="M360 582H364V586H360V582Z" fill="#E5E7EB"/>
<path d="M380 582H384V586H380V582Z" fill="#E5E7EB"/>
<path d="M400 582H404V586H400V582Z" fill="#E5E7EB"/>
<path d="M0 602H4V606H0V602Z" fill="#E5E7EB"/>
<path d="M20 602H24V606H20V602Z" fill="#E5E7EB"/>
<path d="M40 602H44V606H40V602Z" fill="#E5E7EB"/>
<path d="M60 602H64V606H60V602Z" fill="#E5E7EB"/>
<path d="M80 602H84V606H80V602Z" fill="#E5E7EB"/>
<path d="M100 602H104V606H100V602Z" fill="#E5E7EB"/>
<path d="M120 602H124V606H120V602Z" fill="#E5E7EB"/>
<path d="M140 602H144V606H140V602Z" fill="#E5E7EB"/>
<path d="M160 602H164V606H160V602Z" fill="#E5E7EB"/>
<path d="M180 602H184V606H180V602Z" fill="#E5E7EB"/>
<path d="M200 602H204V606H200V602Z" fill="#E5E7EB"/>
<path d="M220 602H224V606H220V602Z" fill="#E5E7EB"/>
<path d="M240 602H244V606H240V602Z" fill="#E5E7EB"/>
<path d="M260 602H264V606H260V602Z" fill="#E5E7EB"/>
<path d="M280 602H284V606H280V602Z" fill="#E5E7EB"/>
<path d="M300 602H304V606H300V602Z" fill="#E5E7EB"/>
<path d="M320 602H324V606H320V602Z" fill="#E5E7EB"/>
<path d="M340 602H344V606H340V602Z" fill="#E5E7EB"/>
<path d="M360 602H364V606H360V602Z" fill="#E5E7EB"/>
<path d="M380 602H384V606H380V602Z" fill="#E5E7EB"/>
<path d="M400 602H404V606H400V602Z" fill="#E5E7EB"/>
<path d="M0 622H4V626H0V622Z" fill="#E5E7EB"/>
<path d="M20 622H24V626H20V622Z" fill="#E5E7EB"/>
<path d="M40 622H44V626H40V622Z" fill="#E5E7EB"/>
<path d="M60 622H64V626H60V622Z" fill="#E5E7EB"/>
<path d="M80 622H84V626H80V622Z" fill="#E5E7EB"/>
<path d="M100 622H104V626H100V622Z" fill="#E5E7EB"/>
<path d="M120 622H124V626H120V622Z" fill="#E5E7EB"/>
<path d="M140 622H144V626H140V622Z" fill="#E5E7EB"/>
<path d="M160 622H164V626H160V622Z" fill="#E5E7EB"/>
<path d="M180 622H184V626H180V622Z" fill="#E5E7EB"/>
<path d="M200 622H204V626H200V622Z" fill="#E5E7EB"/>
<path d="M220 622H224V626H220V622Z" fill="#E5E7EB"/>
<path d="M240 622H244V626H240V622Z" fill="#E5E7EB"/>
<path d="M260 622H264V626H260V622Z" fill="#E5E7EB"/>
<path d="M280 622H284V626H280V622Z" fill="#E5E7EB"/>
<path d="M300 622H304V626H300V622Z" fill="#E5E7EB"/>
<path d="M320 622H324V626H320V622Z" fill="#E5E7EB"/>
<path d="M340 622H344V626H340V622Z" fill="#E5E7EB"/>
<path d="M360 622H364V626H360V622Z" fill="#E5E7EB"/>
<path d="M380 622H384V626H380V622Z" fill="#E5E7EB"/>
<path d="M400 622H404V626H400V622Z" fill="#E5E7EB"/>
<path d="M0 642H4V646H0V642Z" fill="#E5E7EB"/>
<path d="M20 642H24V646H20V642Z" fill="#E5E7EB"/>
<path d="M40 642H44V646H40V642Z" fill="#E5E7EB"/>
<path d="M60 642H64V646H60V642Z" fill="#E5E7EB"/>
<path d="M80 642H84V646H80V642Z" fill="#E5E7EB"/>
<path d="M100 642H104V646H100V642Z" fill="#E5E7EB"/>
<path d="M120 642H124V646H120V642Z" fill="#E5E7EB"/>
<path d="M140 642H144V646H140V642Z" fill="#E5E7EB"/>
<path d="M160 642H164V646H160V642Z" fill="#E5E7EB"/>
<path d="M180 642H184V646H180V642Z" fill="#E5E7EB"/>
<path d="M200 642H204V646H200V642Z" fill="#E5E7EB"/>
<path d="M220 642H224V646H220V642Z" fill="#E5E7EB"/>
<path d="M240 642H244V646H240V642Z" fill="#E5E7EB"/>
<path d="M260 642H264V646H260V642Z" fill="#E5E7EB"/>
<path d="M280 642H284V646H280V642Z" fill="#E5E7EB"/>
<path d="M300 642H304V646H300V642Z" fill="#E5E7EB"/>
<path d="M320 642H324V646H320V642Z" fill="#E5E7EB"/>
<path d="M340 642H344V646H340V642Z" fill="#E5E7EB"/>
<path d="M360 642H364V646H360V642Z" fill="#E5E7EB"/>
<path d="M380 642H384V646H380V642Z" fill="#E5E7EB"/>
<path d="M400 642H404V646H400V642Z" fill="#E5E7EB"/>
<path d="M0 662H4V666H0V662Z" fill="#E5E7EB"/>
<path d="M20 662H24V666H20V662Z" fill="#E5E7EB"/>
<path d="M40 662H44V666H40V662Z" fill="#E5E7EB"/>
<path d="M60 662H64V666H60V662Z" fill="#E5E7EB"/>
<path d="M80 662H84V666H80V662Z" fill="#E5E7EB"/>
<path d="M100 662H104V666H100V662Z" fill="#E5E7EB"/>
<path d="M120 662H124V666H120V662Z" fill="#E5E7EB"/>
<path d="M140 662H144V666H140V662Z" fill="#E5E7EB"/>
<path d="M160 662H164V666H160V662Z" fill="#E5E7EB"/>
<path d="M180 662H184V666H180V662Z" fill="#E5E7EB"/>
<path d="M200 662H204V666H200V662Z" fill="#E5E7EB"/>
<path d="M220 662H224V666H220V662Z" fill="#E5E7EB"/>
<path d="M240 662H244V666H240V662Z" fill="#E5E7EB"/>
<path d="M260 662H264V666H260V662Z" fill="#E5E7EB"/>
<path d="M280 662H284V666H280V662Z" fill="#E5E7EB"/>
<path d="M300 662H304V666H300V662Z" fill="#E5E7EB"/>
<path d="M320 662H324V666H320V662Z" fill="#E5E7EB"/>
<path d="M340 662H344V666H340V662Z" fill="#E5E7EB"/>
<path d="M360 662H364V666H360V662Z" fill="#E5E7EB"/>
<path d="M380 662H384V666H380V662Z" fill="#E5E7EB"/>
<path d="M400 662H404V666H400V662Z" fill="#E5E7EB"/>
<path d="M0 682H4V686H0V682Z" fill="#E5E7EB"/>
<path d="M20 682H24V686H20V682Z" fill="#E5E7EB"/>
<path d="M40 682H44V686H40V682Z" fill="#E5E7EB"/>
<path d="M60 682H64V686H60V682Z" fill="#E5E7EB"/>
<path d="M80 682H84V686H80V682Z" fill="#E5E7EB"/>
<path d="M100 682H104V686H100V682Z" fill="#E5E7EB"/>
<path d="M120 682H124V686H120V682Z" fill="#E5E7EB"/>
<path d="M140 682H144V686H140V682Z" fill="#E5E7EB"/>
<path d="M160 682H164V686H160V682Z" fill="#E5E7EB"/>
<path d="M180 682H184V686H180V682Z" fill="#E5E7EB"/>
<path d="M200 682H204V686H200V682Z" fill="#E5E7EB"/>
<path d="M220 682H224V686H220V682Z" fill="#E5E7EB"/>
<path d="M240 682H244V686H240V682Z" fill="#E5E7EB"/>
<path d="M260 682H264V686H260V682Z" fill="#E5E7EB"/>
<path d="M280 682H284V686H280V682Z" fill="#E5E7EB"/>
<path d="M300 682H304V686H300V682Z" fill="#E5E7EB"/>
<path d="M320 682H324V686H320V682Z" fill="#E5E7EB"/>
<path d="M340 682H344V686H340V682Z" fill="#E5E7EB"/>
<path d="M360 682H364V686H360V682Z" fill="#E5E7EB"/>
<path d="M380 682H384V686H380V682Z" fill="#E5E7EB"/>
<path d="M400 682H404V686H400V682Z" fill="#E5E7EB"/>
<path d="M0 702H4V706H0V702Z" fill="#E5E7EB"/>
<path d="M20 702H24V706H20V702Z" fill="#E5E7EB"/>
<path d="M40 702H44V706H40V702Z" fill="#E5E7EB"/>
<path d="M60 702H64V706H60V702Z" fill="#E5E7EB"/>
<path d="M80 702H84V706H80V702Z" fill="#E5E7EB"/>
<path d="M100 702H104V706H100V702Z" fill="#E5E7EB"/>
<path d="M120 702H124V706H120V702Z" fill="#E5E7EB"/>
<path d="M140 702H144V706H140V702Z" fill="#E5E7EB"/>
<path d="M160 702H164V706H160V702Z" fill="#E5E7EB"/>
<path d="M180 702H184V706H180V702Z" fill="#E5E7EB"/>
<path d="M200 702H204V706H200V702Z" fill="#E5E7EB"/>
<path d="M220 702H224V706H220V702Z" fill="#E5E7EB"/>
<path d="M240 702H244V706H240V702Z" fill="#E5E7EB"/>
<path d="M260 702H264V706H260V702Z" fill="#E5E7EB"/>
<path d="M280 702H284V706H280V702Z" fill="#E5E7EB"/>
<path d="M300 702H304V706H300V702Z" fill="#E5E7EB"/>
<path d="M320 702H324V706H320V702Z" fill="#E5E7EB"/>
<path d="M340 702H344V706H340V702Z" fill="#E5E7EB"/>
<path d="M360 702H364V706H360V702Z" fill="#E5E7EB"/>
<path d="M380 702H384V706H380V702Z" fill="#E5E7EB"/>
<path d="M400 702H404V706H400V702Z" fill="#E5E7EB"/>
<path d="M0 722H4V726H0V722Z" fill="#E5E7EB"/>
<path d="M20 722H24V726H20V722Z" fill="#E5E7EB"/>
<path d="M40 722H44V726H40V722Z" fill="#E5E7EB"/>
<path d="M60 722H64V726H60V722Z" fill="#E5E7EB"/>
<path d="M80 722H84V726H80V722Z" fill="#E5E7EB"/>
<path d="M100 722H104V726H100V722Z" fill="#E5E7EB"/>
<path d="M120 722H124V726H120V722Z" fill="#E5E7EB"/>
<path d="M140 722H144V726H140V722Z" fill="#E5E7EB"/>
<path d="M160 722H164V726H160V722Z" fill="#E5E7EB"/>
<path d="M180 722H184V726H180V722Z" fill="#E5E7EB"/>
<path d="M200 722H204V726H200V722Z" fill="#E5E7EB"/>
<path d="M220 722H224V726H220V722Z" fill="#E5E7EB"/>
<path d="M240 722H244V726H240V722Z" fill="#E5E7EB"/>
<path d="M260 722H264V726H260V722Z" fill="#E5E7EB"/>
<path d="M280 722H284V726H280V722Z" fill="#E5E7EB"/>
<path d="M300 722H304V726H300V722Z" fill="#E5E7EB"/>
<path d="M320 722H324V726H320V722Z" fill="#E5E7EB"/>
<path d="M340 722H344V726H340V722Z" fill="#E5E7EB"/>
<path d="M360 722H364V726H360V722Z" fill="#E5E7EB"/>
<path d="M380 722H384V726H380V722Z" fill="#E5E7EB"/>
<path d="M400 722H404V726H400V722Z" fill="#E5E7EB"/>
<path d="M0 742H4V746H0V742Z" fill="#E5E7EB"/>
<path d="M20 742H24V746H20V742Z" fill="#E5E7EB"/>
<path d="M40 742H44V746H40V742Z" fill="#E5E7EB"/>
<path d="M60 742H64V746H60V742Z" fill="#E5E7EB"/>
<path d="M80 742H84V746H80V742Z" fill="#E5E7EB"/>
<path d="M100 742H104V746H100V742Z" fill="#E5E7EB"/>
<path d="M120 742H124V746H120V742Z" fill="#E5E7EB"/>
<path d="M140 742H144V746H140V742Z" fill="#E5E7EB"/>
<path d="M160 742H164V746H160V742Z" fill="#E5E7EB"/>
<path d="M180 742H184V746H180V742Z" fill="#E5E7EB"/>
<path d="M200 742H204V746H200V742Z" fill="#E5E7EB"/>
<path d="M220 742H224V746H220V742Z" fill="#E5E7EB"/>
<path d="M240 742H244V746H240V742Z" fill="#E5E7EB"/>
<path d="M260 742H264V746H260V742Z" fill="#E5E7EB"/>
<path d="M280 742H284V746H280V742Z" fill="#E5E7EB"/>
<path d="M300 742H304V746H300V742Z" fill="#E5E7EB"/>
<path d="M320 742H324V746H320V742Z" fill="#E5E7EB"/>
<path d="M340 742H344V746H340V742Z" fill="#E5E7EB"/>
<path d="M360 742H364V746H360V742Z" fill="#E5E7EB"/>
<path d="M380 742H384V746H380V742Z" fill="#E5E7EB"/>
<path d="M400 742H404V746H400V742Z" fill="#E5E7EB"/>
</g>
<defs>
<clipPath id="clip0_407_14980">
<rect width="404" height="784" fill="white" transform="translate(0 -78)"/>
</clipPath>
</defs>
</svg>
