<svg width="96" height="17" viewBox="0 0 96 17" fill="none" xmlns="http://www.w3.org/2000/svg">
<path d="M8.27569 12.4208L11.4279 14.4179C11.8308 14.6732 12.3311 14.2935 12.2115 13.8232L11.3008 10.2405C11.2752 10.1407 11.2782 10.0357 11.3096 9.9376C11.3409 9.83946 11.3994 9.75218 11.4781 9.68577L14.3049 7.33306C14.6763 7.02392 14.4846 6.40751 14.0074 6.37654L10.3159 6.13696C10.2165 6.12986 10.1211 6.09465 10.0409 6.03545C9.96069 5.97625 9.89896 5.89548 9.86289 5.80255L8.48612 2.33549C8.44869 2.23685 8.38215 2.15194 8.29532 2.09201C8.2085 2.03209 8.1055 2 8 2C7.89451 2 7.79151 2.03209 7.70468 2.09201C7.61786 2.15194 7.55131 2.23685 7.51389 2.33549L6.13712 5.80255C6.10104 5.89548 6.03931 5.97625 5.95912 6.03545C5.87892 6.09465 5.78355 6.12986 5.68412 6.13696L1.99263 6.37654C1.51544 6.40751 1.32373 7.02392 1.69515 7.33306L4.52185 9.68577C4.60063 9.75218 4.65906 9.83946 4.69044 9.9376C4.72181 10.0357 4.72485 10.1407 4.6992 10.2405L3.85459 13.563C3.71111 14.1274 4.31143 14.583 4.79495 14.2767L7.72431 12.4208C7.8067 12.3683 7.90234 12.3405 8 12.3405C8.09767 12.3405 8.1933 12.3683 8.27569 12.4208Z" fill="#EABE0D"/>
<path d="M28.2757 12.4208L31.4279 14.4179C31.8308 14.6732 32.3311 14.2935 32.2115 13.8232L31.3008 10.2405C31.2752 10.1407 31.2782 10.0357 31.3096 9.9376C31.3409 9.83946 31.3994 9.75218 31.4781 9.68577L34.3049 7.33306C34.6763 7.02392 34.4846 6.40751 34.0074 6.37654L30.3159 6.13696C30.2165 6.12986 30.1211 6.09465 30.0409 6.03545C29.9607 5.97625 29.899 5.89548 29.8629 5.80255L28.4861 2.33549C28.4487 2.23685 28.3821 2.15194 28.2953 2.09201C28.2085 2.03209 28.1055 2 28 2C27.8945 2 27.7915 2.03209 27.7047 2.09201C27.6179 2.15194 27.5513 2.23685 27.5139 2.33549L26.1371 5.80255C26.101 5.89548 26.0393 5.97625 25.9591 6.03545C25.8789 6.09465 25.7836 6.12986 25.6841 6.13696L21.9926 6.37654C21.5154 6.40751 21.3237 7.02392 21.6951 7.33306L24.5219 9.68577C24.6006 9.75218 24.6591 9.83946 24.6904 9.9376C24.7218 10.0357 24.7248 10.1407 24.6992 10.2405L23.8546 13.563C23.7111 14.1274 24.3114 14.583 24.795 14.2767L27.7243 12.4208C27.8067 12.3683 27.9023 12.3405 28 12.3405C28.0977 12.3405 28.1933 12.3683 28.2757 12.4208Z" fill="#EABE0D"/>
<path d="M48.2757 12.4208L51.4279 14.4179C51.8308 14.6732 52.3311 14.2935 52.2115 13.8232L51.3008 10.2405C51.2752 10.1407 51.2782 10.0357 51.3096 9.9376C51.3409 9.83946 51.3994 9.75218 51.4781 9.68577L54.3049 7.33306C54.6763 7.02392 54.4846 6.40751 54.0074 6.37654L50.3159 6.13696C50.2165 6.12986 50.1211 6.09465 50.0409 6.03545C49.9607 5.97625 49.899 5.89548 49.8629 5.80255L48.4861 2.33549C48.4487 2.23685 48.3821 2.15194 48.2953 2.09201C48.2085 2.03209 48.1055 2 48 2C47.8945 2 47.7915 2.03209 47.7047 2.09201C47.6179 2.15194 47.5513 2.23685 47.5139 2.33549L46.1371 5.80255C46.101 5.89548 46.0393 5.97625 45.9591 6.03545C45.8789 6.09465 45.7836 6.12986 45.6841 6.13696L41.9926 6.37654C41.5154 6.40751 41.3237 7.02392 41.6951 7.33306L44.5219 9.68577C44.6006 9.75218 44.6591 9.83946 44.6904 9.9376C44.7218 10.0357 44.7248 10.1407 44.6992 10.2405L43.8546 13.563C43.7111 14.1274 44.3114 14.583 44.795 14.2767L47.7243 12.4208C47.8067 12.3683 47.9023 12.3405 48 12.3405C48.0977 12.3405 48.1933 12.3683 48.2757 12.4208Z" fill="#EABE0D"/>
<path d="M68.2757 12.4208L71.4279 14.4179C71.8308 14.6732 72.3311 14.2935 72.2115 13.8232L71.3008 10.2405C71.2752 10.1407 71.2782 10.0357 71.3096 9.9376C71.3409 9.83946 71.3994 9.75218 71.4781 9.68577L74.3049 7.33306C74.6763 7.02392 74.4846 6.40751 74.0074 6.37654L70.3159 6.13696C70.2165 6.12986 70.1211 6.09465 70.0409 6.03545C69.9607 5.97625 69.899 5.89548 69.8629 5.80255L68.4861 2.33549C68.4487 2.23685 68.3821 2.15194 68.2953 2.09201C68.2085 2.03209 68.1055 2 68 2C67.8945 2 67.7915 2.03209 67.7047 2.09201C67.6179 2.15194 67.5513 2.23685 67.5139 2.33549L66.1371 5.80255C66.101 5.89548 66.0393 5.97625 65.9591 6.03545C65.8789 6.09465 65.7836 6.12986 65.6841 6.13696L61.9926 6.37654C61.5154 6.40751 61.3237 7.02392 61.6951 7.33306L64.5219 9.68577C64.6006 9.75218 64.6591 9.83946 64.6904 9.9376C64.7218 10.0357 64.7248 10.1407 64.6992 10.2405L63.8546 13.563C63.7111 14.1274 64.3114 14.583 64.795 14.2767L67.7243 12.4208C67.8067 12.3683 67.9023 12.3405 68 12.3405C68.0977 12.3405 68.1933 12.3683 68.2757 12.4208Z" fill="#EABE0D"/>
<path d="M88.2757 12.4208L91.4279 14.4179C91.8308 14.6732 92.3311 14.2935 92.2115 13.8232L91.3008 10.2405C91.2752 10.1407 91.2782 10.0357 91.3096 9.9376C91.3409 9.83946 91.3994 9.75218 91.4781 9.68577L94.3049 7.33306C94.6763 7.02392 94.4846 6.40751 94.0074 6.37654L90.3159 6.13696C90.2165 6.12986 90.1211 6.09465 90.0409 6.03545C89.9607 5.97625 89.899 5.89548 89.8629 5.80255L88.4861 2.33549C88.4487 2.23685 88.3821 2.15194 88.2953 2.09201C88.2085 2.03209 88.1055 2 88 2C87.8945 2 87.7915 2.03209 87.7047 2.09201C87.6179 2.15194 87.5513 2.23685 87.5139 2.33549L86.1371 5.80255C86.101 5.89548 86.0393 5.97625 85.9591 6.03545C85.8789 6.09465 85.7836 6.12986 85.6841 6.13696L81.9926 6.37654C81.5154 6.40751 81.3237 7.02392 81.6951 7.33306L84.5219 9.68577C84.6006 9.75218 84.6591 9.83946 84.6904 9.9376C84.7218 10.0357 84.7248 10.1407 84.6992 10.2405L83.8546 13.563C83.7111 14.1274 84.3114 14.583 84.795 14.2767L87.7243 12.4208C87.8067 12.3683 87.9023 12.3405 88 12.3405C88.0977 12.3405 88.1933 12.3683 88.2757 12.4208Z" fill="#EABE0D"/>
</svg>
