<svg width="116" height="20" viewBox="0 0 116 20" fill="none" xmlns="http://www.w3.org/2000/svg">
<path d="M10.3446 14.901L14.2849 17.3974C14.7886 17.7165 15.4139 17.2419 15.2644 16.654L14.126 12.1756C14.0939 12.0509 14.0977 11.9197 14.137 11.797C14.1762 11.6743 14.2492 11.5652 14.3477 11.4822L17.8811 8.54132C18.3453 8.1549 18.1057 7.38439 17.5092 7.34567L12.8949 7.0462C12.7706 7.03732 12.6514 6.99332 12.5511 6.91931C12.4509 6.84531 12.3737 6.74435 12.3286 6.62819L10.6076 2.29436C10.5609 2.17106 10.4777 2.06492 10.3692 1.99002C10.2606 1.91511 10.1319 1.875 10 1.875C9.86813 1.875 9.73938 1.91511 9.63085 1.99002C9.52232 2.06492 9.43914 2.17106 9.39236 2.29436L7.6714 6.62819C7.6263 6.74435 7.54914 6.84531 7.4489 6.91931C7.34865 6.99332 7.22944 7.03732 7.10515 7.0462L2.49078 7.34567C1.89429 7.38439 1.65466 8.1549 2.11894 8.54132L5.65232 11.4822C5.75079 11.5652 5.82383 11.6743 5.86305 11.797C5.90226 11.9197 5.90606 12.0509 5.874 12.1756L4.81824 16.3288C4.63889 17.0343 5.38929 17.6038 5.99369 17.2209L9.65539 14.901C9.75837 14.8354 9.87792 14.8006 10 14.8006C10.1221 14.8006 10.2416 14.8354 10.3446 14.901Z" fill="#EABE0D"/>
<path d="M34.3446 14.901L38.2849 17.3974C38.7886 17.7165 39.4139 17.2419 39.2644 16.654L38.126 12.1756C38.0939 12.0509 38.0977 11.9197 38.137 11.797C38.1762 11.6743 38.2492 11.5652 38.3477 11.4822L41.8811 8.54132C42.3453 8.1549 42.1057 7.38439 41.5092 7.34567L36.8949 7.0462C36.7706 7.03732 36.6514 6.99332 36.5511 6.91931C36.4509 6.84531 36.3737 6.74435 36.3286 6.62819L34.6076 2.29436C34.5609 2.17106 34.4777 2.06492 34.3692 1.99002C34.2606 1.91511 34.1319 1.875 34 1.875C33.8681 1.875 33.7394 1.91511 33.6309 1.99002C33.5223 2.06492 33.4391 2.17106 33.3924 2.29436L31.6714 6.62819C31.6263 6.74435 31.5491 6.84531 31.4489 6.91931C31.3486 6.99332 31.2294 7.03732 31.1052 7.0462L26.4908 7.34567C25.8943 7.38439 25.6547 8.1549 26.1189 8.54132L29.6523 11.4822C29.7508 11.5652 29.8238 11.6743 29.863 11.797C29.9023 11.9197 29.9061 12.0509 29.874 12.1756L28.8182 16.3288C28.6389 17.0343 29.3893 17.6038 29.9937 17.2209L33.6554 14.901C33.7584 14.8354 33.8779 14.8006 34 14.8006C34.1221 14.8006 34.2416 14.8354 34.3446 14.901Z" fill="#EABE0D"/>
<path d="M58.3446 14.901L62.2849 17.3974C62.7886 17.7165 63.4139 17.2419 63.2644 16.654L62.126 12.1756C62.0939 12.0509 62.0977 11.9197 62.137 11.797C62.1762 11.6743 62.2492 11.5652 62.3477 11.4822L65.8811 8.54132C66.3453 8.1549 66.1057 7.38439 65.5092 7.34567L60.8949 7.0462C60.7706 7.03732 60.6514 6.99332 60.5511 6.91931C60.4509 6.84531 60.3737 6.74435 60.3286 6.62819L58.6076 2.29436C58.5609 2.17106 58.4777 2.06492 58.3692 1.99002C58.2606 1.91511 58.1319 1.875 58 1.875C57.8681 1.875 57.7394 1.91511 57.6309 1.99002C57.5223 2.06492 57.4391 2.17106 57.3924 2.29436L55.6714 6.62819C55.6263 6.74435 55.5491 6.84531 55.4489 6.91931C55.3486 6.99332 55.2294 7.03732 55.1052 7.0462L50.4908 7.34567C49.8943 7.38439 49.6547 8.1549 50.1189 8.54132L53.6523 11.4822C53.7508 11.5652 53.8238 11.6743 53.863 11.797C53.9023 11.9197 53.9061 12.0509 53.874 12.1756L52.8182 16.3288C52.6389 17.0343 53.3893 17.6038 53.9937 17.2209L57.6554 14.901C57.7584 14.8354 57.8779 14.8006 58 14.8006C58.1221 14.8006 58.2416 14.8354 58.3446 14.901Z" fill="#EABE0D"/>
<path d="M82.3446 14.901L86.2849 17.3974C86.7886 17.7165 87.4139 17.2419 87.2644 16.654L86.126 12.1756C86.0939 12.0509 86.0977 11.9197 86.137 11.797C86.1762 11.6743 86.2492 11.5652 86.3477 11.4822L89.8811 8.54132C90.3453 8.1549 90.1057 7.38439 89.5092 7.34567L84.8949 7.0462C84.7706 7.03732 84.6514 6.99332 84.5511 6.91931C84.4509 6.84531 84.3737 6.74435 84.3286 6.62819L82.6076 2.29436C82.5609 2.17106 82.4777 2.06492 82.3692 1.99002C82.2606 1.91511 82.1319 1.875 82 1.875C81.8681 1.875 81.7394 1.91511 81.6309 1.99002C81.5223 2.06492 81.4391 2.17106 81.3924 2.29436L79.6714 6.62819C79.6263 6.74435 79.5491 6.84531 79.4489 6.91931C79.3486 6.99332 79.2294 7.03732 79.1052 7.0462L74.4908 7.34567C73.8943 7.38439 73.6547 8.1549 74.1189 8.54132L77.6523 11.4822C77.7508 11.5652 77.8238 11.6743 77.863 11.797C77.9023 11.9197 77.9061 12.0509 77.874 12.1756L76.8182 16.3288C76.6389 17.0343 77.3893 17.6038 77.9937 17.2209L81.6554 14.901C81.7584 14.8354 81.8779 14.8006 82 14.8006C82.1221 14.8006 82.2416 14.8354 82.3446 14.901Z" fill="#EABE0D"/>
<path d="M106.345 14.901L110.285 17.3974C110.789 17.7165 111.414 17.2419 111.264 16.654L110.126 12.1756C110.094 12.0509 110.098 11.9197 110.137 11.797C110.176 11.6743 110.249 11.5652 110.348 11.4822L113.881 8.54132C114.345 8.1549 114.106 7.38439 113.509 7.34567L108.895 7.0462C108.771 7.03732 108.651 6.99332 108.551 6.91931C108.451 6.84531 108.374 6.74435 108.329 6.62819L106.608 2.29436C106.561 2.17106 106.478 2.06492 106.369 1.99002C106.261 1.91511 106.132 1.875 106 1.875C105.868 1.875 105.739 1.91511 105.631 1.99002C105.522 2.06492 105.439 2.17106 105.392 2.29436L103.671 6.62819C103.626 6.74435 103.549 6.84531 103.449 6.91931C103.349 6.99332 103.229 7.03732 103.105 7.0462L98.4908 7.34567C97.8943 7.38439 97.6547 8.1549 98.1189 8.54132L101.652 11.4822C101.751 11.5652 101.824 11.6743 101.863 11.797C101.902 11.9197 101.906 12.0509 101.874 12.1756L100.818 16.3288C100.639 17.0343 101.389 17.6038 101.994 17.2209L105.655 14.901C105.758 14.8354 105.878 14.8006 106 14.8006C106.122 14.8006 106.242 14.8354 106.345 14.901Z" fill="#EABE0D"/>
</svg>
