<svg width="24" height="25" viewBox="0 0 24 25" fill="none" xmlns="http://www.w3.org/2000/svg">
<path d="M14.2502 3.5H5.24951C5.0506 3.5 4.85983 3.57902 4.71918 3.71967C4.57853 3.86032 4.49951 4.05109 4.49951 4.25V20.75C4.49951 20.9489 4.57853 21.1397 4.71918 21.2803C4.85983 21.421 5.0506 21.5 5.24951 21.5H18.7502C18.8487 21.5 18.9463 21.4806 19.0373 21.4429C19.1283 21.4052 19.2109 21.35 19.2806 21.2803C19.3502 21.2107 19.4055 21.128 19.4432 21.037C19.4808 20.946 19.5002 20.8485 19.5002 20.75V8.75M14.2502 3.5L19.5002 8.75M14.2502 3.5V8.75H19.5002M9.00024 16.25H15.0002M9.00024 13.25H15.0002" stroke="#797979" stroke-width="1.5" stroke-linecap="round" stroke-linejoin="round"/>
</svg>
