<svg width="24" height="25" viewBox="0 0 24 25" fill="none" xmlns="http://www.w3.org/2000/svg">
<path d="M15 12.5L15.416 13.124C15.6247 12.9849 15.75 12.7508 15.75 12.5C15.75 12.2492 15.6247 12.0151 15.416 11.876L15 12.5ZM10.5 9.5L10.916 8.87596C10.6859 8.72253 10.39 8.70823 10.1461 8.83874C9.90224 8.96926 9.75 9.2234 9.75 9.5H10.5ZM10.5 15.5H9.75C9.75 15.7766 9.90224 16.0307 10.1461 16.1613C10.39 16.2918 10.6859 16.2775 10.916 16.124L10.5 15.5ZM20.25 12.5C20.25 17.0563 16.5563 20.75 12 20.75V22.25C17.3848 22.25 21.75 17.8848 21.75 12.5H20.25ZM12 20.75C7.44365 20.75 3.75 17.0563 3.75 12.5H2.25C2.25 17.8848 6.61522 22.25 12 22.25V20.75ZM3.75 12.5C3.75 7.94365 7.44365 4.25 12 4.25V2.75C6.61522 2.75 2.25 7.11522 2.25 12.5H3.75ZM12 4.25C16.5563 4.25 20.25 7.94365 20.25 12.5H21.75C21.75 7.11522 17.3848 2.75 12 2.75V4.25ZM15.416 11.876L10.916 8.87596L10.084 10.124L14.584 13.124L15.416 11.876ZM9.75 9.5V15.5H11.25V9.5H9.75ZM10.916 16.124L15.416 13.124L14.584 11.876L10.084 14.876L10.916 16.124Z" fill="#797979"/>
</svg>
