<svg width="54" height="38" viewBox="0 0 54 38" fill="none" xmlns="http://www.w3.org/2000/svg">
<g clip-path="url(#clip0_407_3462)">
<path d="M52.8074 5.92694C52.4977 4.78136 51.8935 3.73697 51.055 2.89777C50.2165 2.05857 49.173 1.45384 48.0284 1.1438C43.8379 0 26.9726 0 26.9726 0C26.9726 0 10.1065 0.0346221 5.91599 1.17842C4.77134 1.48848 3.72782 2.09324 2.88934 2.93248C2.05087 3.77172 1.4467 4.81616 1.13699 5.96178C-0.13053 13.4136 -0.622225 24.7684 1.1718 31.9221C1.48153 33.0677 2.08572 34.1121 2.92419 34.9513C3.76267 35.7905 4.80617 36.3952 5.9508 36.7053C10.1413 37.8491 27.007 37.8491 27.007 37.8491C27.007 37.8491 43.8725 37.8491 48.0628 36.7053C49.2075 36.3952 50.251 35.7905 51.0895 34.9513C51.928 34.1121 52.5322 33.0677 52.842 31.9221C54.1789 24.4598 54.5909 13.1119 52.8074 5.92694Z" fill="#FF0000"/>
<path d="M21.6045 27.0344L35.5956 18.9239L21.6045 10.8135V27.0344Z" fill="white"/>
</g>
<defs>
<clipPath id="clip0_407_3462">
<rect width="54" height="38" fill="white"/>
</clipPath>
</defs>
</svg>
