<svg width="51" height="50" viewBox="0 0 51 50" fill="none" xmlns="http://www.w3.org/2000/svg">
<path d="M25.9074 4.16536C37.4049 4.16536 46.7552 13.5112 46.7552 24.9987C46.7552 36.4862 37.4049 45.832 25.9074 45.832C14.4119 45.832 5.05957 36.4862 5.05957 24.9987C5.05957 13.5112 14.4119 4.16536 25.9074 4.16536Z" fill="#202020"/>
<path d="M22.9002 16.2059C23.2984 16.2059 23.6986 16.3579 24.003 16.6621L31.2727 23.8913C31.5666 24.185 31.7313 24.5829 31.7313 24.9996C31.7313 25.4142 31.5666 25.8121 31.2727 26.1059L24.003 33.3392C23.3922 33.9475 22.404 33.9475 21.7932 33.335C21.1844 32.7225 21.1865 31.7329 21.7973 31.1246L27.9537 24.9996L21.7973 18.8746C21.1865 18.2663 21.1844 17.2788 21.7932 16.6663C22.0975 16.3579 22.4999 16.2059 22.9002 16.2059Z" fill="white"/>
</svg>
