<svg width="24" height="24" viewBox="0 0 24 24" fill="none" xmlns="http://www.w3.org/2000/svg">
<g clip-path="url(#clip0_407_17234)">
<path d="M23.8362 8.79347C23.6316 8.14236 23.223 7.57438 22.6706 7.1735C22.1183 6.77262 21.4516 6.56014 20.7692 6.56747H16.4002L15.0732 2.43147C14.8645 1.78042 14.4545 1.21248 13.9022 0.809531C13.3499 0.406583 12.6839 0.189453 12.0002 0.189453C11.3165 0.189453 10.6505 0.406583 10.0982 0.809531C9.54593 1.21248 9.13587 1.78042 8.92719 2.43147L7.60019 6.56747H3.23119C2.55094 6.56844 1.88838 6.78435 1.33817 7.18437C0.787961 7.58439 0.378234 8.14806 0.167514 8.79485C-0.043205 9.44165 -0.0441377 10.1385 0.16485 10.7859C0.373837 11.4332 0.782054 11.998 1.33119 12.3995L4.88719 14.9995L3.53519 19.1865C3.3167 19.8359 3.31394 20.5385 3.5273 21.1896C3.74067 21.8406 4.15874 22.4053 4.71919 22.7995C5.27004 23.2062 5.93759 23.4242 6.62235 23.4207C7.30711 23.4173 7.97244 23.1927 8.51919 22.7805L12.0002 20.2185L15.4822 22.7775C16.032 23.1819 16.696 23.4016 17.3786 23.4049C18.0611 23.4083 18.7272 23.1951 19.281 22.796C19.8347 22.3969 20.2477 21.8325 20.4605 21.1839C20.6733 20.5354 20.6749 19.836 20.4652 19.1865L19.1132 14.9995L22.6732 12.3995C23.2286 12.003 23.6416 11.4383 23.8511 10.7888C24.0605 10.1394 24.0553 9.43972 23.8362 8.79347ZM21.4932 10.7845L17.3492 13.8135C17.179 13.9376 17.0523 14.1124 16.9873 14.3128C16.9223 14.5132 16.9223 14.729 16.9872 14.9295L18.5622 19.7995C18.6419 20.0465 18.6412 20.3124 18.5602 20.559C18.4793 20.8056 18.3222 21.0201 18.1116 21.1718C17.901 21.3235 17.6477 21.4046 17.3882 21.4032C17.1287 21.4019 16.8762 21.3183 16.6672 21.1645L12.5922 18.1645C12.4206 18.0384 12.2132 17.9704 12.0002 17.9704C11.7872 17.9704 11.5798 18.0384 11.4082 18.1645L7.33319 21.1645C7.12428 21.3204 6.87113 21.4057 6.61046 21.4081C6.34978 21.4104 6.09513 21.3297 5.88342 21.1776C5.67171 21.0255 5.51394 20.8099 5.43299 20.5622C5.35204 20.3144 5.35211 20.0472 5.43319 19.7995L7.01319 14.9295C7.07811 14.729 7.07806 14.5132 7.01305 14.3128C6.94805 14.1124 6.8214 13.9376 6.65119 13.8135L2.50719 10.7845C2.2985 10.6317 2.14343 10.4168 2.06413 10.1706C1.98484 9.92441 1.98538 9.65944 2.06568 9.41356C2.14597 9.16769 2.30192 8.95347 2.51123 8.80152C2.72055 8.64957 2.97254 8.56765 3.23119 8.56747H8.33119C8.54291 8.56746 8.74916 8.50026 8.92024 8.37554C9.09132 8.25082 9.21841 8.07503 9.28319 7.87347L10.8332 3.04247C10.9128 2.79525 11.0687 2.57966 11.2786 2.42672C11.4885 2.27377 11.7415 2.19137 12.0012 2.19137C12.2609 2.19137 12.5139 2.27377 12.7238 2.42672C12.9337 2.57966 13.0896 2.79525 13.1692 3.04247L14.7192 7.87347C14.784 8.07503 14.9111 8.25082 15.0821 8.37554C15.2532 8.50026 15.4595 8.56746 15.6712 8.56747H20.7712C21.0299 8.56765 21.2818 8.64957 21.4912 8.80152C21.7005 8.95347 21.8564 9.16769 21.9367 9.41356C22.017 9.65944 22.0175 9.92441 21.9383 10.1706C21.859 10.4168 21.7039 10.6317 21.4952 10.7845H21.4932Z" fill="#EABE0D"/>
</g>
<defs>
<clipPath id="clip0_407_17234">
<rect width="24" height="24" fill="white"/>
</clipPath>
</defs>
</svg>
