<svg width="24" height="24" viewBox="0 0 24 24" fill="none" xmlns="http://www.w3.org/2000/svg">
<path d="M9.00018 17.9991V18.7491C9.00018 19.5448 9.31625 20.3079 9.87886 20.8705C10.4415 21.4331 11.2045 21.7491 12.0002 21.7491C12.7958 21.7491 13.5589 21.4331 14.1215 20.8705C14.6841 20.3079 15.0002 19.5448 15.0002 18.7491V17.9991M17.197 2.24805C18.7231 3.21148 19.9533 4.57787 20.7518 6.19639M3.24854 6.19639C4.04705 4.57787 5.27728 3.21148 6.80339 2.24805M5.26922 10.4991C5.26675 9.61359 5.43903 8.73625 5.77621 7.9174C6.11338 7.09854 6.60881 6.35426 7.23412 5.7272C7.85943 5.10015 8.60232 4.60264 9.42023 4.26318C10.2381 3.92372 11.115 3.74898 12.0006 3.74898C12.8861 3.74898 13.763 3.92372 14.5809 4.26318C15.3988 4.60264 16.1417 5.10015 16.767 5.7272C17.3923 6.35426 17.8877 7.09854 18.2249 7.9174C18.5621 8.73625 18.7344 9.61359 18.7319 10.4991C18.7319 13.8569 19.4344 15.8053 20.0531 16.8702C20.1198 16.984 20.1552 17.1134 20.1559 17.2452C20.1566 17.3771 20.1226 17.5068 20.0571 17.6213C19.9917 17.7358 19.8972 17.831 19.7833 17.8974C19.6693 17.9637 19.5398 17.9988 19.408 17.9991H4.5924C4.46051 17.9988 4.33105 17.9637 4.21707 17.8973C4.10308 17.831 4.00861 17.7358 3.94319 17.6212C3.87777 17.5067 3.8437 17.377 3.84443 17.2451C3.84516 17.1132 3.88065 16.9838 3.94734 16.8701C4.5664 15.8051 5.26922 13.8567 5.26922 10.4991Z" stroke="#EABE0D" stroke-width="2" stroke-linecap="round" stroke-linejoin="round"/>
</svg>
