<svg width="36" height="36" viewBox="0 0 36 36" fill="none" xmlns="http://www.w3.org/2000/svg">
<path d="M9.0011 11.25V7.875C9.0011 7.57663 9.11962 7.29048 9.3306 7.07951C9.54158 6.86853 9.82773 6.75 10.1261 6.75H30.3761C30.6745 6.75 30.9606 6.86853 31.1716 7.07951C31.3826 7.29048 31.5011 7.57663 31.5011 7.875V23.625C31.5011 23.9234 31.3826 24.2095 31.1716 24.4205C30.9606 24.6315 30.6745 24.75 30.3761 24.75H27.0011M4.5 15.75H27M5.6261 11.25H25.8761C26.4974 11.25 27.0011 11.7537 27.0011 12.375V28.125C27.0011 28.7463 26.4974 29.25 25.8761 29.25H5.6261C5.00478 29.25 4.5011 28.7463 4.5011 28.125V12.375C4.5011 11.7537 5.00478 11.25 5.6261 11.25Z" stroke="#202020" stroke-width="2" stroke-linecap="round" stroke-linejoin="round"/>
</svg>
