<svg width="36" height="36" viewBox="0 0 36 36" fill="none" xmlns="http://www.w3.org/2000/svg">
<path d="M25.8745 15.75L33.7495 11.25V24.75L25.8745 20.25M3.37451 8.4375H21.3745C22.568 8.4375 23.7126 8.91161 24.5565 9.75552C25.4004 10.5994 25.8745 11.744 25.8745 12.9375V26.4375C25.8745 26.7359 25.756 27.022 25.545 27.233C25.334 27.444 25.0479 27.5625 24.7495 27.5625H6.74951C5.55604 27.5625 4.41144 27.0884 3.56753 26.2445C2.72362 25.4006 2.24951 24.256 2.24951 23.0625V9.5625C2.24951 9.26413 2.36804 8.97798 2.57902 8.76701C2.78999 8.55603 3.07614 8.4375 3.37451 8.4375Z" stroke="#202020" stroke-width="2" stroke-linecap="round" stroke-linejoin="round"/>
</svg>
