<svg width="32" height="32" viewBox="0 0 32 32" fill="none" xmlns="http://www.w3.org/2000/svg">
<path d="M15.9998 29.3327C14.1776 29.3327 12.4554 28.9825 10.8332 28.282C9.21095 27.5816 7.79406 26.626 6.58251 25.4153C5.37184 24.2047 4.41628 22.7882 3.71584 21.166C3.01539 19.5438 2.66562 17.8216 2.66651 15.9993C2.66651 14.1549 3.01673 12.4269 3.71717 10.8153C4.41762 9.20379 5.37317 7.79313 6.58384 6.58335C7.79451 5.37179 9.21051 4.41624 10.8318 3.71668C12.4532 3.01713 14.1758 2.6669 15.9998 2.66602C17.8443 2.66602 19.5723 3.01624 21.1838 3.71668C22.7954 4.41713 24.2061 5.37268 25.4158 6.58335C26.6274 7.79402 27.583 9.20513 28.2825 10.8167C28.9821 12.4282 29.3323 14.1558 29.3332 15.9993C29.3332 17.8216 28.983 19.5438 28.2825 21.166C27.5821 22.7882 26.6265 24.2051 25.4158 25.4167C24.2052 26.6273 22.7941 27.5829 21.1825 28.2833C19.5709 28.9838 17.8434 29.3336 15.9998 29.3327ZM15.9998 26.5993C16.5776 25.7994 17.0776 24.966 17.4998 24.0993C17.9221 23.2327 18.2665 22.3105 18.5332 21.3327H13.4665C13.7332 22.3105 14.0776 23.2327 14.4998 24.0993C14.9221 24.966 15.4221 25.7994 15.9998 26.5993ZM12.5332 26.066C12.1332 25.3327 11.783 24.5714 11.4825 23.782C11.1821 22.9927 10.9323 22.1762 10.7332 21.3327H6.79984C7.44428 22.4438 8.25006 23.4105 9.21717 24.2327C10.1843 25.0549 11.2896 25.666 12.5332 26.066ZM19.4665 26.066C20.711 25.666 21.8167 25.0549 22.7838 24.2327C23.7509 23.4105 24.5563 22.4438 25.1998 21.3327H21.2665C21.0665 22.1771 20.8167 22.994 20.5172 23.7833C20.2176 24.5727 19.8674 25.3336 19.4665 26.066ZM5.66651 18.666H10.1998C10.1332 18.2216 10.083 17.7825 10.0492 17.3487C10.0154 16.9149 9.99895 16.4651 9.99984 15.9993C9.99984 15.5327 10.0167 15.0829 10.0505 14.65C10.0843 14.2171 10.1341 13.778 10.1998 13.3327H5.66651C5.55539 13.7771 5.47184 14.2162 5.41584 14.65C5.35984 15.0838 5.33228 15.5336 5.33317 15.9993C5.33317 16.466 5.36117 16.9158 5.41717 17.3487C5.47317 17.7816 5.55628 18.2207 5.66651 18.666ZM12.8665 18.666H19.1332C19.1998 18.2216 19.2501 17.7825 19.2838 17.3487C19.3176 16.9149 19.3341 16.4651 19.3332 15.9993C19.3332 15.5327 19.3163 15.0829 19.2825 14.65C19.2487 14.2171 19.1989 13.778 19.1332 13.3327H12.8665C12.7998 13.7771 12.7496 14.2162 12.7158 14.65C12.6821 15.0838 12.6656 15.5336 12.6665 15.9993C12.6665 16.466 12.6834 16.9158 12.7172 17.3487C12.751 17.7816 12.8007 18.2207 12.8665 18.666ZM21.7998 18.666H26.3332C26.4443 18.2216 26.5278 17.7825 26.5838 17.3487C26.6398 16.9149 26.6674 16.4651 26.6665 15.9993C26.6665 15.5327 26.6385 15.0829 26.5825 14.65C26.5265 14.2171 26.4434 13.778 26.3332 13.3327H21.7998C21.8665 13.7771 21.9167 14.2162 21.9505 14.65C21.9843 15.0838 22.0007 15.5336 21.9998 15.9993C21.9998 16.466 21.983 16.9158 21.9492 17.3487C21.9154 17.7816 21.8656 18.2207 21.7998 18.666ZM21.2665 10.666H25.1998C24.5554 9.5549 23.7501 8.58824 22.7838 7.76602C21.8176 6.94379 20.7118 6.33268 19.4665 5.93268C19.8665 6.66602 20.2167 7.42735 20.5172 8.21668C20.8176 9.00602 21.0674 9.82246 21.2665 10.666ZM13.4665 10.666H18.5332C18.2665 9.68824 17.9221 8.76602 17.4998 7.89935C17.0776 7.03268 16.5776 6.19935 15.9998 5.39935C15.4221 6.19935 14.9221 7.03268 14.4998 7.89935C14.0776 8.76602 13.7332 9.68824 13.4665 10.666ZM6.79984 10.666H10.7332C10.9332 9.82157 11.1834 9.00468 11.4838 8.21535C11.7843 7.42602 12.1341 6.66513 12.5332 5.93268C11.2887 6.33268 10.183 6.94379 9.21584 7.76602C8.24873 8.58824 7.44339 9.5549 6.79984 10.666Z" fill="#EABE0D"/>
</svg>
