<svg width="24" height="24" viewBox="0 0 24 24" fill="none" xmlns="http://www.w3.org/2000/svg">
<path d="M8.99982 17.9991V18.7491C8.99982 19.5448 9.31589 20.3079 9.8785 20.8705C10.4411 21.4331 11.2042 21.7491 11.9998 21.7491C12.7955 21.7491 13.5585 21.4331 14.1211 20.8705C14.6837 20.3079 14.9998 19.5448 14.9998 18.7491V17.9991M17.1966 2.24805C18.7227 3.21148 19.9529 4.57787 20.7515 6.19639M3.24817 6.19639C4.04669 4.57787 5.27691 3.21148 6.80303 2.24805M5.26885 10.4991C5.26638 9.61359 5.43867 8.73625 5.77584 7.9174C6.11301 7.09854 6.60845 6.35426 7.23376 5.7272C7.85906 5.10015 8.60196 4.60264 9.41987 4.26318C10.2378 3.92372 11.1146 3.74898 12.0002 3.74898C12.8857 3.74898 13.7626 3.92372 14.5805 4.26318C15.3984 4.60264 16.1413 5.10015 16.7666 5.7272C17.3919 6.35426 17.8874 7.09854 18.2245 7.9174C18.5617 8.73625 18.734 9.61359 18.7315 10.4991C18.7315 13.8569 19.434 15.8053 20.0527 16.8702C20.1194 16.984 20.1549 17.1134 20.1556 17.2452C20.1563 17.3771 20.1222 17.5068 20.0568 17.6213C19.9913 17.7358 19.8969 17.831 19.7829 17.8974C19.6689 17.9637 19.5395 17.9988 19.4076 17.9991H4.59203C4.46015 17.9988 4.33068 17.9637 4.2167 17.8973C4.10272 17.831 4.00825 17.7358 3.94282 17.6212C3.8774 17.5067 3.84333 17.377 3.84406 17.2451C3.84479 17.1132 3.88029 16.9838 3.94697 16.8701C4.56603 15.8051 5.26885 13.8567 5.26885 10.4991Z" stroke="#EABE0D" stroke-width="2" stroke-linecap="round" stroke-linejoin="round"/>
</svg>
