<svg width="32" height="32" viewBox="0 0 32 32" fill="none" xmlns="http://www.w3.org/2000/svg">
<path d="M16.75 9C16.75 8.58579 16.4142 8.25 16 8.25C15.5858 8.25 15.25 8.58579 15.25 9H16.75ZM16 16H15.25C15.25 16.4142 15.5858 16.75 16 16.75V16ZM23 16.75C23.4142 16.75 23.75 16.4142 23.75 16C23.75 15.5858 23.4142 15.25 23 15.25V16.75ZM27.25 16C27.25 22.2132 22.2132 27.25 16 27.25V28.75C23.0416 28.75 28.75 23.0416 28.75 16H27.25ZM16 27.25C9.7868 27.25 4.75 22.2132 4.75 16H3.25C3.25 23.0416 8.95837 28.75 16 28.75V27.25ZM4.75 16C4.75 9.7868 9.7868 4.75 16 4.75V3.25C8.95837 3.25 3.25 8.95837 3.25 16H4.75ZM16 4.75C22.2132 4.75 27.25 9.7868 27.25 16H28.75C28.75 8.95837 23.0416 3.25 16 3.25V4.75ZM15.25 9V16H16.75V9H15.25ZM16 16.75H23V15.25H16V16.75Z" fill="#202020"/>
</svg>
