<svg width="32" height="32" viewBox="0 0 32 32" fill="none" xmlns="http://www.w3.org/2000/svg">
<path d="M16 29.3327C14.1778 29.3327 12.4556 28.9825 10.8334 28.282C9.21113 27.5816 7.79424 26.626 6.58269 25.4153C5.37202 24.2047 4.41647 22.7882 3.71602 21.166C3.01558 19.5438 2.6658 17.8216 2.66669 15.9993C2.66669 14.1549 3.01691 12.4269 3.71736 10.8153C4.4178 9.20379 5.37336 7.79313 6.58402 6.58335C7.79469 5.37179 9.21069 4.41624 10.832 3.71668C12.4534 3.01713 14.176 2.6669 16 2.66602C17.8445 2.66602 19.5725 3.01624 21.184 3.71668C22.7956 4.41713 24.2062 5.37268 25.416 6.58335C26.6276 7.79402 27.5831 9.20513 28.2827 10.8167C28.9822 12.4282 29.3325 14.1558 29.3334 15.9993C29.3334 17.8216 28.9831 19.5438 28.2827 21.166C27.5822 22.7882 26.6267 24.2051 25.416 25.4167C24.2054 26.6273 22.7942 27.5829 21.1827 28.2833C19.5711 28.9838 17.8436 29.3336 16 29.3327ZM16 26.5993C16.5778 25.7994 17.0778 24.966 17.5 24.0993C17.9222 23.2327 18.2667 22.3105 18.5334 21.3327H13.4667C13.7334 22.3105 14.0778 23.2327 14.5 24.0993C14.9222 24.966 15.4222 25.7994 16 26.5993ZM12.5334 26.066C12.1334 25.3327 11.7831 24.5714 11.4827 23.782C11.1822 22.9927 10.9325 22.1762 10.7334 21.3327H6.80002C7.44447 22.4438 8.25024 23.4105 9.21736 24.2327C10.1845 25.0549 11.2898 25.666 12.5334 26.066ZM19.4667 26.066C20.7111 25.666 21.8169 25.0549 22.784 24.2327C23.7511 23.4105 24.5565 22.4438 25.2 21.3327H21.2667C21.0667 22.1771 20.8169 22.994 20.5174 23.7833C20.2178 24.5727 19.8676 25.3336 19.4667 26.066ZM5.66669 18.666H10.2C10.1334 18.2216 10.0831 17.7825 10.0494 17.3487C10.0156 16.9149 9.99913 16.4651 10 15.9993C10 15.5327 10.0169 15.0829 10.0507 14.65C10.0845 14.2171 10.1342 13.778 10.2 13.3327H5.66669C5.55558 13.7771 5.47202 14.2162 5.41602 14.65C5.36002 15.0838 5.33247 15.5336 5.33336 15.9993C5.33336 16.466 5.36136 16.9158 5.41736 17.3487C5.47336 17.7816 5.55647 18.2207 5.66669 18.666ZM12.8667 18.666H19.1334C19.2 18.2216 19.2502 17.7825 19.284 17.3487C19.3178 16.9149 19.3342 16.4651 19.3334 15.9993C19.3334 15.5327 19.3165 15.0829 19.2827 14.65C19.2489 14.2171 19.1991 13.778 19.1334 13.3327H12.8667C12.8 13.7771 12.7498 14.2162 12.716 14.65C12.6822 15.0838 12.6658 15.5336 12.6667 15.9993C12.6667 16.466 12.6836 16.9158 12.7174 17.3487C12.7511 17.7816 12.8009 18.2207 12.8667 18.666ZM21.8 18.666H26.3334C26.4445 18.2216 26.528 17.7825 26.584 17.3487C26.64 16.9149 26.6676 16.4651 26.6667 15.9993C26.6667 15.5327 26.6387 15.0829 26.5827 14.65C26.5267 14.2171 26.4436 13.778 26.3334 13.3327H21.8C21.8667 13.7771 21.9169 14.2162 21.9507 14.65C21.9845 15.0838 22.0009 15.5336 22 15.9993C22 16.466 21.9831 16.9158 21.9494 17.3487C21.9156 17.7816 21.8658 18.2207 21.8 18.666ZM21.2667 10.666H25.2C24.5556 9.5549 23.7502 8.58824 22.784 7.76602C21.8178 6.94379 20.712 6.33268 19.4667 5.93268C19.8667 6.66602 20.2169 7.42735 20.5174 8.21668C20.8178 9.00602 21.0676 9.82246 21.2667 10.666ZM13.4667 10.666H18.5334C18.2667 9.68824 17.9222 8.76602 17.5 7.89935C17.0778 7.03268 16.5778 6.19935 16 5.39935C15.4222 6.19935 14.9222 7.03268 14.5 7.89935C14.0778 8.76602 13.7334 9.68824 13.4667 10.666ZM6.80002 10.666H10.7334C10.9334 9.82157 11.1836 9.00468 11.484 8.21535C11.7845 7.42602 12.1342 6.66513 12.5334 5.93268C11.2889 6.33268 10.1831 6.94379 9.21602 7.76602C8.24891 8.58824 7.44358 9.5549 6.80002 10.666Z" fill="#EABE0D"/>
</svg>
