<svg width="24" height="24" viewBox="0 0 24 24" fill="none" xmlns="http://www.w3.org/2000/svg">
<path d="M8.99969 18.0001V18.7501C8.99969 19.5458 9.31576 20.3088 9.87837 20.8714C10.441 21.4341 11.204 21.7501 11.9997 21.7501C12.7953 21.7501 13.5584 21.4341 14.121 20.8714C14.6836 20.3088 14.9997 19.5458 14.9997 18.7501V18.0001M17.1965 2.24903C18.7226 3.21246 19.9528 4.57885 20.7513 6.19736M3.24805 6.19736C4.04657 4.57885 5.27679 3.21245 6.80291 2.24902M5.26873 10.5001C5.26626 9.61457 5.43854 8.73723 5.77572 7.91837C6.11289 7.09952 6.60833 6.35524 7.23363 5.72818C7.85894 5.10112 8.60183 4.60361 9.41975 4.26415C10.2377 3.92469 11.1145 3.74996 12.0001 3.74996C12.8856 3.74996 13.7625 3.92469 14.5804 4.26415C15.3983 4.60361 16.1412 5.10112 16.7665 5.72818C17.3918 6.35524 17.8872 7.09952 18.2244 7.91837C18.5616 8.73723 18.7339 9.61457 18.7314 10.5001C18.7314 13.8578 19.4339 15.8063 20.0526 16.8712C20.1193 16.985 20.1547 17.1143 20.1554 17.2462C20.1562 17.3781 20.1221 17.5078 20.0566 17.6223C19.9912 17.7368 19.8967 17.832 19.7828 17.8983C19.6688 17.9647 19.5393 17.9998 19.4075 18.0001H4.59191C4.46002 17.9998 4.33056 17.9647 4.21658 17.8983C4.10259 17.832 4.00813 17.7367 3.9427 17.6222C3.87728 17.5077 3.84321 17.378 3.84394 17.2461C3.84467 17.1142 3.88017 16.9848 3.94685 16.871C4.56591 15.8061 5.26873 13.8577 5.26873 10.5001Z" stroke="#EABE0D" stroke-width="2" stroke-linecap="round" stroke-linejoin="round"/>
</svg>
