<svg width="32" height="32" viewBox="0 0 32 32" fill="none" xmlns="http://www.w3.org/2000/svg">
<path d="M16.0003 29.3337C14.1781 29.3337 12.4559 28.9834 10.8337 28.283C9.21144 27.5825 7.79455 26.627 6.58299 25.4163C5.37233 24.2057 4.41677 22.7892 3.71633 21.167C3.01588 19.5448 2.6661 17.8225 2.66699 16.0003C2.66699 14.1559 3.01722 12.4279 3.71766 10.8163C4.41811 9.20477 5.37366 7.7941 6.58433 6.58433C7.79499 5.37277 9.21099 4.41721 10.8323 3.71766C12.4537 3.0181 14.1763 2.66788 16.0003 2.66699C17.8448 2.66699 19.5728 3.01721 21.1843 3.71766C22.7959 4.4181 24.2066 5.37366 25.4163 6.58433C26.6279 7.79499 27.5834 9.2061 28.283 10.8177C28.9826 12.4292 29.3328 14.1568 29.3337 16.0003C29.3337 17.8225 28.9834 19.5448 28.283 21.167C27.5826 22.7892 26.627 24.2061 25.4163 25.4177C24.2057 26.6283 22.7945 27.5839 21.183 28.2843C19.5714 28.9848 17.8439 29.3345 16.0003 29.3337ZM16.0003 26.6003C16.5781 25.8003 17.0781 24.967 17.5003 24.1003C17.9225 23.2337 18.267 22.3114 18.5337 21.3337H13.467C13.7337 22.3114 14.0781 23.2337 14.5003 24.1003C14.9225 24.967 15.4225 25.8003 16.0003 26.6003ZM12.5337 26.067C12.1337 25.3337 11.7834 24.5723 11.483 23.783C11.1826 22.9937 10.9328 22.1772 10.7337 21.3337H6.80033C7.44477 22.4448 8.25055 23.4114 9.21766 24.2337C10.1848 25.0559 11.2901 25.667 12.5337 26.067ZM19.467 26.067C20.7114 25.667 21.8172 25.0559 22.7843 24.2337C23.7514 23.4114 24.5568 22.4448 25.2003 21.3337H21.267C21.067 22.1781 20.8172 22.995 20.5177 23.7843C20.2181 24.5737 19.8679 25.3345 19.467 26.067ZM5.66699 18.667H10.2003C10.1337 18.2225 10.0834 17.7834 10.0497 17.3497C10.0159 16.9159 9.99944 16.4661 10.0003 16.0003C10.0003 15.5337 10.0172 15.0839 10.051 14.651C10.0848 14.2181 10.1346 13.779 10.2003 13.3337H5.66699C5.55588 13.7781 5.47233 14.2172 5.41633 14.651C5.36033 15.0848 5.33277 15.5345 5.33366 16.0003C5.33366 16.467 5.36166 16.9168 5.41766 17.3497C5.47366 17.7825 5.55677 18.2217 5.66699 18.667ZM12.867 18.667H19.1337C19.2003 18.2225 19.2505 17.7834 19.2843 17.3497C19.3181 16.9159 19.3345 16.4661 19.3337 16.0003C19.3337 15.5337 19.3168 15.0839 19.283 14.651C19.2492 14.2181 19.1994 13.779 19.1337 13.3337H12.867C12.8003 13.7781 12.7501 14.2172 12.7163 14.651C12.6825 15.0848 12.6661 15.5345 12.667 16.0003C12.667 16.467 12.6839 16.9168 12.7177 17.3497C12.7514 17.7825 12.8012 18.2217 12.867 18.667ZM21.8003 18.667H26.3337C26.4448 18.2225 26.5283 17.7834 26.5843 17.3497C26.6403 16.9159 26.6679 16.4661 26.667 16.0003C26.667 15.5337 26.639 15.0839 26.583 14.651C26.527 14.2181 26.4439 13.779 26.3337 13.3337H21.8003C21.867 13.7781 21.9172 14.2172 21.951 14.651C21.9848 15.0848 22.0012 15.5345 22.0003 16.0003C22.0003 16.467 21.9834 16.9168 21.9497 17.3497C21.9159 17.7825 21.8661 18.2217 21.8003 18.667ZM21.267 10.667H25.2003C24.5559 9.55588 23.7505 8.58921 22.7843 7.76699C21.8181 6.94477 20.7123 6.33366 19.467 5.93366C19.867 6.66699 20.2172 7.42833 20.5177 8.21766C20.8181 9.00699 21.0679 9.82344 21.267 10.667ZM13.467 10.667H18.5337C18.267 9.68921 17.9225 8.76699 17.5003 7.90033C17.0781 7.03366 16.5781 6.20033 16.0003 5.40033C15.4225 6.20033 14.9225 7.03366 14.5003 7.90033C14.0781 8.76699 13.7337 9.68921 13.467 10.667ZM6.80033 10.667H10.7337C10.9337 9.82255 11.1839 9.00566 11.4843 8.21633C11.7848 7.42699 12.1345 6.6661 12.5337 5.93366C11.2892 6.33366 10.1834 6.94477 9.21633 7.76699C8.24922 8.58921 7.44388 9.55588 6.80033 10.667Z" fill="#EABE0D"/>
</svg>
